<!-- icon666.com - MILLIONS vector ICONS FREE --><svg viewBox="0 0 176 176" xmlns="http://www.w3.org/2000/svg"><g id="Layer_2" data-name="Layer 2"><g id="Multiply"><rect id="background" fill="#5e3ace" height="176" rx="37.58" width="176"></rect><path id="shadow" d="m176 116v22.41a37.59 37.59 0 0 1 -37.58 37.59h-22.42l-65.47-65.48 74.94-45z" fill="#321982"></path><path id="icon" d="m105.52 88 20 19.94a1.83 1.83 0 0 1 0 2.58l-15 15a1.83 1.83 0 0 1 -2.58 0l-19.94-20-19.94 20a1.83 1.83 0 0 1 -2.58 0l-15-15a1.83 1.83 0 0 1 0-2.58l19.99-19.94-19.94-19.94a1.83 1.83 0 0 1 0-2.58l15-15a1.83 1.83 0 0 1 2.58 0l19.89 19.99 19.94-19.94a1.83 1.83 0 0 1 2.58 0l15 15a1.83 1.83 0 0 1 0 2.58z" fill="#fff"></path></g></g></svg>