<!-- icon666.com - MILLIONS vector ICONS FREE --><svg viewBox="0 0 64 64" xmlns="http://www.w3.org/2000/svg"><g id="email-envelope-mail-send-letter"><path d="m60.05 21.41-25.94-16.1a4.01 4.01 0 0 0 -4.22 0l-25.94 16.1a2.009 2.009 0 0 0 -.95 1.7v.89l26.891 16.691a4 4 0 0 0 4.218 0l26.891-16.691v-.89a2.009 2.009 0 0 0 -.95-1.7z" fill="#006df0"></path><path d="m33 26-6 12 12.364-9.273z" fill="#ed1c24"></path><path d="m29.891 40.691-26.891-16.691v35a2.006 2.006 0 0 0 2 2h54a2.006 2.006 0 0 0 2-2v-35l-26.891 16.691a4 4 0 0 1 -4.218 0z" fill="#57a4ff"></path><path d="m57.944 25.9a34.108 34.108 0 0 1 -33.944 32.1h-21v1a2.006 2.006 0 0 0 2 2h54a2.006 2.006 0 0 0 2-2v-35z" fill="#2488ff"></path><path d="m60.05 21.41-2.05-1.271v5.723l3-1.862v-.89a2.009 2.009 0 0 0 -.95-1.7z" fill="#005ece"></path><path d="m33 26 27-22-36 18 3 16z" fill="#d80027"></path><path d="m40.038 8.989.002.001-.002-.001-28.038 8.011 12 5 36-18-27 22 14 6 6.942-14.379-.002-.001.002.001 7.058-14.621z" fill="#ff5023"></path></g></svg>