<!-- icon666.com - MILLIONS vector ICONS FREE --><svg viewBox="0 0 64 64" xmlns="http://www.w3.org/2000/svg"><g id="email-envelope-mail-letter-message"><path d="m29.891 40.691-26.891-16.691v35a2 2 0 0 0 2 2h54a2 2 0 0 0 2-2v-35l-26.891 16.691a4 4 0 0 1 -4.218 0z" fill="#57a4ff"></path><path d="m58 25.862v6.138a26 26 0 0 1 -26 26h-29v1a2 2 0 0 0 2 2h54a2 2 0 0 0 2-2v-35z" fill="#2488ff"></path><path d="m59 21h-54a2 2 0 0 0 -2 2v1l26.891 16.691a4 4 0 0 0 4.218 0l26.891-16.691v-1a2 2 0 0 0 -2-2z" fill="#006df0"></path><path d="m61 23a2 2 0 0 0 -2-2h-1v4.862l3-1.862z" fill="#005ece"></path><path d="m32 30a11 11 0 0 0 0 22h4a1 1 0 0 0 0-2h-4a9 9 0 1 1 9-9v1a2 2 0 0 1 -4 0v-1a5.057 5.057 0 1 0 -1.268 3.293 3.994 3.994 0 0 0 7.268-2.293v-1a11.013 11.013 0 0 0 -11-11zm0 14a3 3 0 1 1 3-3 3 3 0 0 1 -3 3z" fill="#f1f2f2"></path></g></svg>