<!-- icon666.com - MILLIONS vector ICONS FREE --><svg viewBox="0 0 64 64" xmlns="http://www.w3.org/2000/svg" xmlns:xlink="http://www.w3.org/1999/xlink"><linearGradient id="linear-gradient" gradientUnits="userSpaceOnUse" x1="3.25" x2="60.75" y1="32" y2="32"><stop offset="0" stop-color="#5bb4f6"></stop><stop offset=".61" stop-color="#2191e5"></stop><stop offset="1" stop-color="#007edb"></stop></linearGradient><g id="Layer_44" data-name="Layer 44"><path d="m49.45 3.25h-34.9a11.31 11.31 0 0 0 -11.3 11.3v34.9a11.31 11.31 0 0 0 11.3 11.3h34.9a11.31 11.31 0 0 0 11.3-11.3v-34.9a11.31 11.31 0 0 0 -11.3-11.3zm-3.82 18.48-11.34 11.93-2.27 2-2.27-2-13.26-13.55a1.78 1.78 0 0 1 .61-.11h29.8a1.91 1.91 0 0 1 .54.09zm2.95-.64a1.76 1.76 0 0 1 .17.76v20.3a1.81 1.81 0 0 1 -.27 1l-12.56-9 10.75-11.35zm-33.33.76a1.87 1.87 0 0 1 .14-.71l12.68 13-12.69 9.06a1.45 1.45 0 0 1 -.13-.59zm13.92 13.34 2.33 2.1a.75.75 0 0 0 1 0l2.33-2.1 12.3 8.81h-.23-30.06z" fill="url(#linear-gradient)"></path></g></svg>