<!-- icon666.com - MILLIONS vector ICONS FREE --><svg viewBox="0 0 32 32" xmlns="http://www.w3.org/2000/svg"><g id="Email"><rect fill="#e6ecff" height="20" rx="3" width="28" x="2" y="6"></rect><path d="m30 22.82v.18a3.0088 3.0088 0 0 1 -3 3h-22a3.0088 3.0088 0 0 1 -3-3v-14a2.9932 2.9932 0 0 1 .81-2.05c2.38 6.68 9.02 16.93 27.19 15.87z" fill="#b7c6e2"></path><path d="m30 10.59-9.6 5.17 9.6 6.72v.52a3.0464 3.0464 0 0 1 -.46 1.6l-11.11-7.78-1.96 1.06a.9831.9831 0 0 1 -.94 0l-1.96-1.06-11.11 7.78a3.0464 3.0464 0 0 1 -.46-1.6v-.52l9.6-6.72-9.6-5.16v-1.6a2.73 2.73 0 0 1 .07-.64l13.93 7.5 13.93-7.5a2.73 2.73 0 0 1 .07.64z" fill="#4294ff"></path><g fill="#2965ed"><path d="m5.61 12.54-3.61-1.94v-1.6a2.73 2.73 0 0 1 .07-.64l1.7.92a24.682 24.682 0 0 0 1.84 3.26z"></path><path d="m11.32 18.4-8.86 6.2a3.0464 3.0464 0 0 1 -.46-1.6v-.52l7.66-5.36c.52.44 1.07.87 1.66 1.28z"></path><path d="m30 22.82v.18a3.0464 3.0464 0 0 1 -.46 1.6l-2.44-1.71c.93.02 1.9 0 2.9-.07z"></path></g></g></svg>