<!-- icon666.com - MILLIONS vector ICONS FREE --><svg viewBox="0 0 32 32" xmlns="http://www.w3.org/2000/svg"><g id="Open_Email" data-name="Open Email"><path d="m30 12.12v13.88a3.0088 3.0088 0 0 1 -3 3h-22a3.0088 3.0088 0 0 1 -3-3v-13.88a2.9769 2.9769 0 0 1 1.43-2.56l12.1-6.44a.98.98 0 0 1 .94 0l12.05 6.41a3.0013 3.0013 0 0 1 1.48 2.59z" fill="#e6ecff"></path><path d="m30 23.85v2.15a3.0088 3.0088 0 0 1 -3 3h-22a3.0088 3.0088 0 0 1 -3-3v-13.88a2.9769 2.9769 0 0 1 1.43-2.56l2.41-1.28c-.57 7.8 2 19.64 24.16 15.57z" fill="#b7c6e2"></path><path d="m30 25.48v.52a3.0088 3.0088 0 0 1 -3 3h-22a3.0088 3.0088 0 0 1 -3-3v-.52l10.92-7.65a1.0174 1.0174 0 0 1 1.05-.06l2.03 1.09 2.03-1.09a1.0174 1.0174 0 0 1 1.05.06z" fill="#4294ff"></path><path d="m30 12.12v1.48l-13.53 7.28a.98.98 0 0 1 -.94 0l-13.53-7.28v-1.48a2.9769 2.9769 0 0 1 1.43-2.56l12.1-6.44a.98.98 0 0 1 .94 0l12.05 6.41a3.0013 3.0013 0 0 1 1.48 2.59z" fill="#d0dbf7"></path><path d="m6.72 16.14-4.72-2.54v-1.48a2.9769 2.9769 0 0 1 1.43-2.56l2.41-1.28a19.44 19.44 0 0 0 .88 7.86z" fill="#8ea6ce"></path><path d="m30 25.48v.52a3.0088 3.0088 0 0 1 -3 3h-22a3.0088 3.0088 0 0 1 -3-3v-.52l7.27-5.1c3.12 3.31 8.81 5.3 18.85 3.78z" fill="#2965ed"></path></g></svg>