<!-- icon666.com - MILLIONS vector ICONS FREE --><svg viewBox="0 0 152 152" xmlns="http://www.w3.org/2000/svg" xmlns:xlink="http://www.w3.org/1999/xlink"><linearGradient id="linear-gradient" gradientUnits="userSpaceOnUse" x1="70.12" x2="83.67" y1="68.34" y2="81.88"><stop offset="0" stop-color="#186eb3"></stop><stop offset="1" stop-color="#186eb3" stop-opacity="0"></stop></linearGradient><linearGradient id="linear-gradient-2" x1="55.18" x2="148.53" xlink:href="#linear-gradient" y1="55.1" y2="148.45"></linearGradient><g id="Layer_2" data-name="Layer 2"><g id="Color"><g id="_27.AT" data-name="27.AT"><rect id="Background" fill="#2196f3" height="152" rx="12" width="152"></rect><g id="Shadow"><path d="m80.1 62.24a10.27 10.27 0 0 1 2.66.34l-1.76 19.58a13.82 13.82 0 0 1 -2.81 5.16 5 5 0 0 1 -3.72 1.8 4.52 4.52 0 0 1 -4.35-2.86q-1.36-2.85-.88-8.43.81-8.08 3.41-11.84a8.47 8.47 0 0 1 7.45-3.75z" fill="url(#linear-gradient)"></path><path d="m152 94.13v45.87a12 12 0 0 1 -12 12h-45.7l-45.25-45.24a27.17 27.17 0 0 0 6.29 4.75q8.1 4.49 19.82 4.49a38.66 38.66 0 0 0 8.91-1 22.37 22.37 0 0 0 7.06-2.77l-1.59-7.13a33.31 33.31 0 0 1 -6.54 1.9 37.49 37.49 0 0 1 -7.64.84q-13.39 0-20.1-8t-6-23a44.59 44.59 0 0 1 4.19-17.46 28.75 28.75 0 0 1 10.05-11.81 26 26 0 0 1 14.58-4.18q12.89 0 19.56 7.81t6 22.16a27.7 27.7 0 0 1 -2.73 11.92q-2.48 4.65-6.12 4.65c-3.24 0-4.61-2-4.12-6l2.19-25.21-2.76-1.72a19.63 19.63 0 0 0 -10.86-3 17.53 17.53 0 0 0 -13.79 6.52q-5.62 6.52-6.91 17.27a24.94 24.94 0 0 0 .88 10.21 13.88 13.88 0 0 0 4.58 6.85 11.34 11.34 0 0 0 7.21 2.43 13.36 13.36 0 0 0 11.3-5.67 10.53 10.53 0 0 0 4.21 4.31 12.41 12.41 0 0 0 6.22 1.53 16.48 16.48 0 0 0 13.74-6.66q5.16-6.65 5.59-17.86a41.42 41.42 0 0 0 -3.48-19.54 29.29 29.29 0 0 0 -5.12-7.64z" fill="url(#linear-gradient-2)"></path></g><path id="Icon" d="m112.22 72.93q-.43 11.2-5.59 17.86a16.48 16.48 0 0 1 -13.74 6.66 12.41 12.41 0 0 1 -6.22-1.53 10.53 10.53 0 0 1 -4.21-4.31 13.36 13.36 0 0 1 -11.3 5.67 11.34 11.34 0 0 1 -7.16-2.43 13.88 13.88 0 0 1 -4.58-6.85 24.94 24.94 0 0 1 -.88-10.13q1.29-10.74 6.91-17.27a17.53 17.53 0 0 1 13.79-6.6 19.63 19.63 0 0 1 10.86 3l2.71 1.8-2.19 25.2c-.49 4 .88 6 4.12 6q3.65 0 6.12-4.65a27.7 27.7 0 0 0 2.73-11.92q.72-14.34-6-22.16t-19.51-7.88a26 26 0 0 0 -14.58 4.18 28.75 28.75 0 0 0 -10.09 11.85 44.59 44.59 0 0 0 -4.19 17.46q-.69 15 6 23t20.1 8a37.49 37.49 0 0 0 7.68-.88 33.31 33.31 0 0 0 6.57-2l1.59 7.13a22.37 22.37 0 0 1 -7.09 2.87 38.66 38.66 0 0 1 -8.91 1q-11.73 0-19.82-4.49a27.63 27.63 0 0 1 -12-13.29q-4-8.81-3.52-21.34a49.31 49.31 0 0 1 5.47-21.23 36.13 36.13 0 0 1 13.53-14.52 37.24 37.24 0 0 1 19.43-5.13q10.81 0 18.68 4.49a28.35 28.35 0 0 1 11.81 12.9 41.42 41.42 0 0 1 3.48 19.54zm-42.94 4.9q-.48 5.58.88 8.43a4.52 4.52 0 0 0 4.35 2.86 5 5 0 0 0 3.72-1.8 13.82 13.82 0 0 0 2.77-5.16l1.72-19.58a10.27 10.27 0 0 0 -2.66-.34 8.47 8.47 0 0 0 -7.37 3.76q-2.59 3.76-3.41 11.83z" fill="#fff"></path></g></g></g></svg>