<!-- icon666.com - MILLIONS vector ICONS FREE --><svg version="1.1" id="Capa_1" xmlns="http://www.w3.org/2000/svg" xmlns:xlink="http://www.w3.org/1999/xlink" x="0px" y="0px" viewBox="0 0 512.001 512.001" style="enable-background:new 0 0 512.001 512.001;" xml:space="preserve"><path style="fill:#3453FF;" d="M46.546,69.818h418.909c25.706,0,46.546,20.84,46.546,46.546v279.273 c0,25.706-20.84,46.546-46.546,46.546H46.546C20.84,442.182,0,421.343,0,395.637V116.364C0,90.658,20.84,69.818,46.546,69.818z"></path><path style="fill:#1C3FFF;" d="M69.818,395.637h372.364c12.853,0,23.272,10.419,23.272,23.272l0,0 c0,12.853-10.419,23.272-23.272,23.272H69.818c-12.853,0-23.272-10.419-23.272-23.272l0,0 C46.546,406.056,56.965,395.637,69.818,395.637z"></path><path style="fill:#001AE4;" d="M265.64,316.178l60.178-60.178c12.853-12.853,33.693-12.853,46.546,0l0,0 c12.853,12.853,12.853,33.693,0,46.546l-60.178,60.178c-12.853,12.853-33.693,12.853-46.546,0l0,0 C252.787,349.871,252.787,329.032,265.64,316.178z"></path><path style="fill:#0026FF;" d="M162.909,256.001c0.001-14.901-5.919-29.193-16.456-39.729L13.633,83.451 C4.891,92.171-0.016,104.016,0,116.364v279.273c-0.015,12.348,4.891,24.192,13.633,32.912l132.819-132.819 C156.99,285.192,162.909,270.901,162.909,256.001L162.909,256.001z"></path><path style="fill:#001AE4;" d="M349.091,256.001c-0.001-14.901,5.919-29.193,16.456-39.729l132.819-132.82 c8.744,8.72,13.649,20.564,13.633,32.912v279.273c0.015,12.348-4.891,24.192-13.633,32.912L365.548,295.729 C355.01,285.192,349.091,270.901,349.091,256.001L349.091,256.001z"></path><path style="fill:#556FFF;" d="M465.455,69.818H46.546C20.84,69.818,0,90.657,0,116.363v0.001l216.271,216.271 c10.537,10.537,24.828,16.456,39.729,16.456s29.193-5.919,39.729-16.456l216.271-216.271 C512.001,90.658,491.161,69.818,465.455,69.818L465.455,69.818L465.455,69.818z"></path><path style="fill:#3654FF;" d="M46.546,209.455L46.546,209.455c12.853,0,23.272,10.419,23.272,23.272v93.091 c0,12.854-10.419,23.273-23.272,23.273l0,0c-12.853,0-23.272-10.419-23.272-23.272v-93.091 C23.272,219.874,33.693,209.455,46.546,209.455z"></path><path style="fill:#7D91FF;" d="M69.818,93.091h279.273c12.853,0,23.272,10.419,23.272,23.272l0,0 c0,12.853-10.419,23.272-23.272,23.272H69.818c-12.853,0-23.272-10.419-23.272-23.272l0,0 C46.546,103.511,56.965,93.091,69.818,93.091z"></path></svg>