<!-- icon666.com - MILLIONS vector ICONS FREE --><svg version="1.1" id="Layer_1" xmlns="http://www.w3.org/2000/svg" xmlns:xlink="http://www.w3.org/1999/xlink" x="0px" y="0px" viewBox="0 0 512 512" style="enable-background:new 0 0 512 512;" xml:space="preserve"><path style="fill:#00C3FF;" d="M483.556,455.111H28.444C12.735,455.111,0,442.376,0,426.667V85.333 c0-15.71,12.735-28.444,28.444-28.444h455.111c15.71,0,28.444,12.735,28.444,28.444v341.333 C512,442.376,499.265,455.111,483.556,455.111z"></path><path style="fill:#00AAF0;" d="M28.444,455.111h455.111c15.71,0,28.444-12.735,28.444-28.444V86.027L288.177,276.691 c-18.543,15.796-45.81,15.796-64.353,0L0,86.027v340.64C0,442.376,12.735,455.111,28.444,455.111z"></path><path style="fill:#0096DC;" d="M512,86.027L288.177,276.691c-18.543,15.796-45.81,15.796-64.353,0L0,86.027v340.64 c0,15.71,12.735,28.444,28.444,28.444h455.111c13.817,0,25.313-9.858,27.887-22.92c0.363-1.785,0.557-3.63,0.557-5.524V414.21 L333.841,262.445L512,109.301V86.027z M47.407,322.37V169.579c0-8.127,9.554-12.487,15.693-7.163l115.205,99.903L67.534,356.683 c-5.012,4.269-12.939,2.331-15.068-3.898C49.203,343.24,47.407,333.022,47.407,322.37z M486.248,417.185H142.222 c-26.443,0-50.315-10.857-67.501-28.326c-3.867-3.931-3.561-10.355,0.636-13.931l117.439-100.045l18.731,16.243 c12.395,10.56,28.19,16.375,44.473,16.375s32.078-5.815,44.538-16.429l18.747-16.115L486.248,417.185z"></path></svg>