<!-- icon666.com - MILLIONS vector ICONS FREE --><svg id="Layer_2" viewBox="0 0 512 512" xmlns="http://www.w3.org/2000/svg" xmlns:xlink="http://www.w3.org/1999/xlink" data-name="Layer 2"><linearGradient id="linear-gradient" gradientUnits="userSpaceOnUse" x1="127.392" x2="384.609" y1="33.237" y2="478.75"><stop offset="0" stop-color="#6755a4"></stop><stop offset=".176" stop-color="#6261a6"></stop><stop offset=".492" stop-color="#5480ad"></stop><stop offset=".908" stop-color="#3db2b7"></stop><stop offset="1" stop-color="#38beb9"></stop></linearGradient><path d="m197.158 279.05-181.499-180.631a42.619 42.619 0 0 1 27.155-9.739h426.374a42.613 42.613 0 0 1 27.154 9.74l-181.5 180.629c-30.797 30.651-86.888 30.651-117.684.001zm-5.824 5.853-181.523-180.653a42.614 42.614 0 0 0 -9.811 27.244v249.012a42.677 42.677 0 0 0 13.015 30.7l183.947-121.24c-1.954-1.607-3.843-3.286-5.628-5.066zm64.666 25.463a94.685 94.685 0 0 1 -51.957-15.176l-184.21 121.41a42.543 42.543 0 0 0 22.981 6.719h426.374a42.536 42.536 0 0 0 22.979-6.719l-184.21-121.41a94.688 94.688 0 0 1 -51.957 15.176zm246.189-206.116-181.522 180.65c-1.785 1.777-3.674 3.456-5.629 5.064l183.948 121.241a42.682 42.682 0 0 0 13.014-30.699v-249.012a42.616 42.616 0 0 0 -9.811-27.244z" fill="url(#linear-gradient)"></path></svg>