<!-- icon666.com - MILLIONS vector ICONS FREE --><svg id="svg8" viewBox="0 0 48 48" xmlns="http://www.w3.org/2000/svg" xmlns:xlink="http://www.w3.org/1999/xlink" xmlns:svg="http://www.w3.org/2000/svg"><linearGradient id="linearGradient4476" gradientUnits="userSpaceOnUse" x1="2" x2="46" xlink:href="#linearGradient4474" y1="2" y2="46"></linearGradient><linearGradient id="lg1"><stop id="stop4470" offset="0" stop-color="#0ff"></stop><stop id="stop4472" offset="1" stop-color="#00f"></stop></linearGradient><linearGradient id="linearGradient4474" xlink:href="#lg1"></linearGradient><linearGradient id="linearGradient4524" gradientUnits="userSpaceOnUse" x1="2.003" x2="46.003" xlink:href="#linearGradient4474" y1="2.001" y2="46.001"></linearGradient><linearGradient id="linearGradient4540" gradientUnits="userSpaceOnUse" x1="2.464" x2="46.464" xlink:href="#linearGradient4474" y1="2" y2="46"></linearGradient><linearGradient id="linearGradient1381" gradientTransform="scale(.998 1.002)" gradientUnits="userSpaceOnUse" x1="2.004" x2="38.073" xlink:href="#lg1" y1="2.996" y2="2.996"></linearGradient><linearGradient id="linearGradient4550" gradientUnits="userSpaceOnUse" x1="2.045" x2="46.045" xlink:href="#linearGradient4474" y1="4.433" y2="48.433"></linearGradient><linearGradient id="linearGradient1369" gradientUnits="userSpaceOnUse" x1="2" x2="46" xlink:href="#linearGradient4474" y1="1.976" y2="45.976"></linearGradient><linearGradient id="linearGradient1351" gradientUnits="userSpaceOnUse" x1="2" x2="46" xlink:href="#linearGradient4474" y1="2" y2="44"></linearGradient><linearGradient id="linearGradient1339" gradientUnits="userSpaceOnUse" x1="2" x2="46" xlink:href="#linearGradient4474" y1="4" y2="48"></linearGradient><linearGradient id="linearGradient1293" gradientUnits="userSpaceOnUse" x1="2" x2="46" xlink:href="#linearGradient4474" y1="2.083" y2="46.083"></linearGradient><linearGradient id="linearGradient1283" gradientUnits="userSpaceOnUse" x1="1.937" x2="45.937" xlink:href="#linearGradient4474" y1="3.144" y2="47.144"></linearGradient><linearGradient id="linearGradient8102" gradientUnits="userSpaceOnUse" x1="2" x2="46" xlink:href="#linearGradient4474" y1="3" y2="46"></linearGradient><linearGradient id="linearGradient8068" gradientUnits="userSpaceOnUse" x1="2" x2="46" xlink:href="#linearGradient4474" y1="2.289" y2="46.289"></linearGradient><linearGradient id="linearGradient4668" gradientUnits="userSpaceOnUse" x1="242" x2="286" xlink:href="#linearGradient4474" y1="122" y2="166"></linearGradient><linearGradient id="linearGradient4638" gradientUnits="userSpaceOnUse" x1="5" x2="49" xlink:href="#linearGradient4474" y1="2" y2="46"></linearGradient><linearGradient id="linearGradient4630" gradientUnits="userSpaceOnUse" x1="2" x2="46" xlink:href="#linearGradient4474" y1="1.998" y2="45.998"></linearGradient><linearGradient id="linearGradient4602" gradientUnits="userSpaceOnUse" x1="2" x2="46" xlink:href="#linearGradient4474" y1="1" y2="45"></linearGradient><g id="g1932"><path id="path3538" d="m6 8c-.72482 0-1.39818.20957-1.98633.55078l19.16406 18.76367c.47771.46771 1.16613.4679 1.64454 0l19.17578-18.75586c-.5909-.34557-1.26825-.55859-1.99805-.55859zm-3.41406 1.95117c-.36373.60196-.58594 1.29854-.58594 2.04883v24c0 .66427.18058 1.28293.4707 1.83594l13.54102-14.73828zm42.83594.0137-13.6875 13.38672 13.72656 14.61328c.33366-.58336.53906-1.24875.53906-1.96487v-24c-.002-.77601-.25169-1.46973-.57812-2.03513zm-27.98047 14.53122-13.63477 14.83985c.63131.41749 1.38469.66406 2.19336.66406h36c.75805 0 1.46232-.22501 2.06836-.5957l-13.76563-14.65235-4.08203 3.99219c-1.22625 1.19933-3.21532 1.20041-4.4414 0z" fill="url(#linearGradient4476)" font-variant-ligatures="normal" font-variant-position="normal" font-variant-caps="normal" font-variant-numeric="normal" font-variant-alternates="normal" font-variant-east-asian="normal" font-feature-settings="normal" font-variation-settings="normal" text-indent="0" text-align="start" text-decoration-line="none" text-decoration-style="solid" text-decoration-color="#000000" text-transform="none" text-orientation="mixed" white-space="normal" shape-padding="0" shape-margin="0" inline-size="0" isolation="auto" mix-blend-mode="normal" solid-color="#000000" solid-opacity="1" vector-effect="none"></path></g></svg>