<!-- icon666.com - MILLIONS vector ICONS FREE --><svg version="1.1" id="Layer_1" xmlns="http://www.w3.org/2000/svg" xmlns:xlink="http://www.w3.org/1999/xlink" x="0px" y="0px" viewBox="0 0 512 512" style="enable-background:new 0 0 512 512;" xml:space="preserve"><g><polygon style="fill:#35B0F6;" points="0,182.4 256,333.6 0,484.8 "></polygon><polygon style="fill:#35B0F6;" points="512,484.8 256,333.6 512,182.4 "></polygon></g><polygon style="fill:#32A0F4;" points="0,484.8 512,484.8 256,333.6 "></polygon><polygon style="fill:#EFEFEF;" points="46.4,27.2 46.4,208.8 256,333.6 465.6,209.6 465.6,27.2 "></polygon><g><polygon style="fill:#32A0F4;" points="0,182.4 46.4,147.2 46.4,209.6 "></polygon><polygon style="fill:#32A0F4;" points="512,182.4 465.6,147.2 465.6,209.6 "></polygon></g><g><rect x="99.2" y="74.984" style="fill:#D8D6D6;" width="313.6" height="11.632"></rect><rect x="99.2" y="97.384" style="fill:#D8D6D6;" width="313.6" height="11.632"></rect><rect x="99.2" y="119.784" style="fill:#D8D6D6;" width="313.6" height="11.632"></rect><rect x="99.2" y="142.984" style="fill:#D8D6D6;" width="313.6" height="11.632"></rect><rect x="99.2" y="165.384" style="fill:#D8D6D6;" width="313.6" height="11.632"></rect><rect x="99.2" y="187.784" style="fill:#D8D6D6;" width="313.6" height="11.632"></rect></g></svg>