<!-- icon666.com - MILLIONS vector ICONS FREE --><svg id="Layer_1" viewBox="0 0 512 512" xmlns="http://www.w3.org/2000/svg" data-name="Layer 1"><path d="m256.247.247c141.384 0 256.007 114.623 256.007 256.006s-114.623 256-256.007 256-256-114.622-256-256 114.624-256.006 256-256.006zm161.506 148.273-107.721 107.729 107.721 107.725zm-323 215.454 107.721-107.725-107.725-107.729v215.454zm311.188-222.832h-299.389l144.577 144.568a7.254 7.254 0 0 0 10.248 0zm-193.867 124.698-105.522 105.516h299.389l-105.512-105.516-29.452 29.465a20.853 20.853 0 0 1 -29.443 0z" fill="#03a9f4" fill-rule="evenodd"></path></svg>