<!-- icon666.com - MILLIONS vector ICONS FREE --><svg id="Layer_2" viewBox="0 0 32 32" xmlns="http://www.w3.org/2000/svg"><path d="m16.467 15.885 11.75-10.622c-.373-.167-.783-.263-1.217-.263h-22c-.461 0-.892.113-1.283.299l11.815 10.585c.291.154.644.154.935 0z" fill="#017ea7"></path><g fill="#7bd0e6"><path d="m29.664 6.65-7.315 6.6 7.495 11.659c.092-.288.156-.59.156-.908v-16.001c0-.488-.128-.942-.336-1.35z"></path><path d="m17.59 17.544c-.483.302-1.036.453-1.59.453s-1.107-.151-1.59-.453l-.138-.103-3.134-2.807-7.67 11.932c.45.27.97.434 1.532.434h22c.562 0 1.082-.165 1.532-.434l-7.687-11.958z"></path><path d="m2.333 6.745c-.012-.011-.017-.026-.028-.038-.189.393-.305.828-.305 1.292v16.001c0 .319.063.62.156.908l7.474-11.626z"></path></g></svg>