<!-- icon666.com - MILLIONS vector ICONS FREE --><svg viewBox="0 0 64 64" xmlns="http://www.w3.org/2000/svg" xmlns:xlink="http://www.w3.org/1999/xlink"><linearGradient id="linear-gradient" gradientUnits="userSpaceOnUse" x1="45.1" x2="18.91" y1="54.68" y2="9.32"><stop offset=".01" stop-color="#45dbff" stop-opacity=".5"></stop><stop offset=".21" stop-color="#31b2f1" stop-opacity=".64"></stop><stop offset=".53" stop-color="#167bdf" stop-opacity=".84"></stop><stop offset=".81" stop-color="#0659d4" stop-opacity=".96"></stop><stop offset="1" stop-color="#004dd0"></stop></linearGradient><linearGradient id="linear-gradient-2" x1="31.91" x2="31.91" xlink:href="#linear-gradient" y1="34.79" y2="14"></linearGradient><linearGradient id="linear-gradient-3" gradientUnits="userSpaceOnUse" x1="51.93" x2="12.07" y1="51.93" y2="12.07"><stop offset="0" stop-color="#0099e7"></stop><stop offset=".2" stop-color="#039be8" stop-opacity=".98"></stop><stop offset=".39" stop-color="#0aa3eb" stop-opacity=".92"></stop><stop offset=".59" stop-color="#17afef" stop-opacity=".83"></stop><stop offset=".78" stop-color="#2ac1f6" stop-opacity=".7"></stop><stop offset=".97" stop-color="#41d7fe" stop-opacity=".53"></stop><stop offset=".99" stop-color="#45dbff" stop-opacity=".5"></stop></linearGradient><g id="email"><path d="m55.36 15.51a4.45 4.45 0 0 0 -3.36-1.51h-40a4.51 4.51 0 0 0 -4.5 4.5v27a4.5 4.5 0 0 0 4.5 4.5h40a4.5 4.5 0 0 0 4.5-4.5v-27a4.46 4.46 0 0 0 -1.14-2.99z" fill="url(#linear-gradient)"></path><path d="m55.73 16.38a1.35 1.35 0 0 1 -.57 1l-.82.66h-37.84a4.51 4.51 0 0 0 -3.66 1.89 4.68 4.68 0 0 0 -.43.75l-3.7-2.92a1.25 1.25 0 0 1 -.37-1.83 4.51 4.51 0 0 1 3.66-1.93h40a4.42 4.42 0 0 1 3.36 1.52c.27.3.41.48.37.86z" fill="#27ffff"></path><path d="m55.36 15.52a4.45 4.45 0 0 0 -3.36-1.52h-40a4.5 4.5 0 0 0 -3.66 1.89 1.25 1.25 0 0 0 .37 1.83l20.29 16.04a4.78 4.78 0 0 0 3 1 4.89 4.89 0 0 0 3-1.18l20.2-16.26a1.37 1.37 0 0 0 .57-1c0-.32-.14-.5-.41-.8z" fill="url(#linear-gradient-2)"></path><path d="m12 22.5a4.44 4.44 0 0 1 .41-1.85l-3.7-2.93a1.25 1.25 0 0 1 -.45-1.72 4.45 4.45 0 0 0 -.76 2.5v27a4.51 4.51 0 0 0 4.5 4.5 4.07 4.07 0 0 1 0-.5z" fill="#27ffff"></path><path d="m52 14h-40a4.5 4.5 0 0 0 -4.5 4.5v27a4.5 4.5 0 0 0 4.5 4.5h40a4.5 4.5 0 0 0 4.5-4.5v-27a4.5 4.5 0 0 0 -4.5-4.5zm-1.19 3-17.72 14.38a1.77 1.77 0 0 1 -2.22 0l-18.28-14.38zm1.19 30h-40a1.5 1.5 0 0 1 -1.5-1.5v-26.33l18.5 14.59a4.75 4.75 0 0 0 6 0l18.52-15v26.74a1.5 1.5 0 0 1 -1.52 1.5z" fill="url(#linear-gradient-3)"></path></g></svg>