<!-- icon666.com - MILLIONS vector ICONS FREE --><svg id="svg8" viewBox="0 0 32 32" xmlns="http://www.w3.org/2000/svg" xmlns:xlink="http://www.w3.org/1999/xlink" xmlns:svg="http://www.w3.org/2000/svg"><linearGradient id="linearGradient2978" gradientUnits="userSpaceOnUse" x1="1.92" x2="30.005" xlink:href="#linearGradient2976" y1="-38.234" y2="-10.072"></linearGradient><linearGradient id="linearGradient2976"><stop id="stop2972" offset="0" stop-color="#0ff"></stop><stop id="stop2974" offset="1" stop-color="#00f"></stop></linearGradient><linearGradient id="linearGradient2986" gradientUnits="userSpaceOnUse" x1="2.05" x2="30" xlink:href="#linearGradient2976" y1="-34.45" y2="-6.5"></linearGradient><linearGradient id="linearGradient2994" gradientUnits="userSpaceOnUse" x1="82.05" x2="109.95" xlink:href="#linearGradient2976" y1="-37.95" y2="-10.05"></linearGradient><linearGradient id="linearGradient3007" gradientUnits="userSpaceOnUse" x1="2.05" x2="29.95" xlink:href="#linearGradient2976" y1="-37.95" y2="-10.05"></linearGradient><linearGradient id="linearGradient3017" gradientUnits="userSpaceOnUse" x1="2" x2="29.95" xlink:href="#linearGradient2976" y1="-38" y2="-10.05"></linearGradient><linearGradient id="linearGradient3025" gradientUnits="userSpaceOnUse" x1="2.05" x2="29.707" xlink:href="#linearGradient2976" y1="-37.95" y2="-10.293"></linearGradient><linearGradient id="linearGradient3037" gradientUnits="userSpaceOnUse" x1="2.05" x2="30" xlink:href="#linearGradient2976" y1="-37.95" y2="-10"></linearGradient><linearGradient id="linearGradient3045" gradientUnits="userSpaceOnUse" x1="1.992" x2="29.942" xlink:href="#linearGradient2976" y1="-35.5" y2="-7.55"></linearGradient><linearGradient id="linearGradient3251" gradientUnits="userSpaceOnUse" x1="2.05" x2="30" xlink:href="#linearGradient2976" y1="-37.95" y2="-10"></linearGradient><linearGradient id="linearGradient3241" gradientUnits="userSpaceOnUse" x1="2" x2="30" xlink:href="#linearGradient2976" y1="-38" y2="-10"></linearGradient><linearGradient id="linearGradient3181" gradientUnits="userSpaceOnUse" x1="2.05" x2="30" xlink:href="#linearGradient2976" y1="-37.952" y2="-10.002"></linearGradient><linearGradient id="linearGradient3143" gradientUnits="userSpaceOnUse" x1="2.05" x2="30" xlink:href="#linearGradient2976" y1="-39.45" y2="-11.5"></linearGradient><linearGradient id="linearGradient3133" gradientUnits="userSpaceOnUse" x1="82.05" x2="110" xlink:href="#linearGradient2976" y1="42.05" y2="70"></linearGradient><linearGradient id="linearGradient3123" gradientUnits="userSpaceOnUse" x1="2" x2="29.95" xlink:href="#linearGradient2976" y1="-37.969" y2="-10.019"></linearGradient><linearGradient id="linearGradient3073" gradientUnits="userSpaceOnUse" x1="1.928" x2="31.029" xlink:href="#linearGradient2976" y1="-38.728" y2="-9.64"></linearGradient><linearGradient id="linearGradient3081" gradientUnits="userSpaceOnUse" x1="1.977" x2="29.977" xlink:href="#linearGradient2976" y1="-39.552" y2="-11.552"></linearGradient><linearGradient id="linearGradient3107" gradientUnits="userSpaceOnUse" x1="2.05" x2="30" xlink:href="#linearGradient2976" y1="-37.979" y2="-10.029"></linearGradient><linearGradient id="linearGradient3091" gradientUnits="userSpaceOnUse" x1="3" x2="29.95" xlink:href="#linearGradient2976" y1="-37" y2="-10.05"></linearGradient><g id="g1190" fill="url(#linearGradient3045)" transform="translate(.008 37.5)"><path id="path1184" d="m27.400391-28a1.000005 1.000005 0 0 0 -1 1 1.000005 1.000005 0 0 0 1 1c.349693 0 .599609.249916.599609.599609v12.800782c0 .349694-.249916.599609-.599609.599609h-17.7089848c-.3496943 0-.5996093-.249914-.5996093-.599609a1.000005 1.000005 0 0 0 -1-1 1.000005 1.000005 0 0 0 -1 1c0 1.423105 1.1765049 2.599609 2.5996093 2.599609h17.7089848c1.423104 0 2.599609-1.176504 2.599609-2.599609v-12.800782c0-1.423105-1.176504-2.599609-2.599609-2.599609z" font-variant-ligatures="normal" font-variant-position="normal" font-variant-caps="normal" font-variant-numeric="normal" font-variant-alternates="normal" font-variant-east-asian="normal" font-feature-settings="normal" font-variation-settings="normal" text-indent="0" text-align="start" text-decoration-line="none" text-decoration-style="solid" text-decoration-color="#000000" text-transform="none" text-orientation="mixed" white-space="normal" shape-padding="0" shape-margin="0" inline-size="0" isolation="auto" mix-blend-mode="normal" solid-color="#000000" solid-opacity="1" vector-effect="none"></path><path id="path2350" d="m4.583905-32.999998c-.651963 0-1.246041.253765-1.705078.658203l9.771484 8.378906a1.000105 1.000105 0 0 1 .0098.0078c.50616.443822 1.052433.443822 1.558593 0a1.000105 1.000105 0 0 1 .01172-.0098l9.810544-8.339844c-.46417-.426848-1.07596-.695265-1.74808-.695265zm-2.591797 2.53125c-.000634.0233-.0078.04492-.0078.06836v12.800782c0 1.423104 1.176504 2.599609 2.599609 2.599609h17.708981c1.42311 0 2.59961-1.176505 2.59961-2.599609v-12.800783c0-.000662 0-.0013 0-.002l-9.355466 7.951172c-1.193738 1.046719-3.001074 1.045865-4.195313 0h-.002z" font-variant-ligatures="normal" font-variant-position="normal" font-variant-caps="normal" font-variant-numeric="normal" font-variant-alternates="normal" font-variant-east-asian="normal" font-feature-settings="normal" font-variation-settings="normal" text-indent="0" text-align="start" text-decoration-line="none" text-decoration-style="solid" text-decoration-color="#000000" text-transform="none" text-orientation="mixed" white-space="normal" shape-padding="0" shape-margin="0" inline-size="0" isolation="auto" mix-blend-mode="normal" solid-color="#000000" solid-opacity="1" vector-effect="none"></path></g></svg>