<!-- icon666.com - MILLIONS vector ICONS FREE --><svg version="1.1" id="Layer_1" xmlns="http://www.w3.org/2000/svg" xmlns:xlink="http://www.w3.org/1999/xlink" x="0px" y="0px" viewBox="0 0 512 512" style="enable-background:new 0 0 512 512;" xml:space="preserve"><path style="fill:#334A5E;" d="M298.667,161.467h-85.333c-3.2,0-5.333-2.133-5.333-5.333l0,0c0-3.2,2.133-5.333,5.333-5.333h85.333 c3.2,0,5.333,2.133,5.333,5.333l0,0C304,159.333,301.867,161.467,298.667,161.467z"></path><path style="fill:#40596B;" d="M512,170L267.733,5.733c-7.467-5.333-17.067-5.333-23.467,0L0,170l0,0l256,199.467L512,170L512,170z"></path><path style="fill:#F2F2F2;" d="M480,369.467H32V76.133C32,64.4,41.6,54.8,53.333,54.8h405.333C470.4,54.8,480,64.4,480,76.133 V369.467z"></path><path style="fill:#84DBFF;" d="M512,170L256,369.467L0,170l0,0v318.933c0,6.4,3.2,11.733,7.467,16c3.2,3.2,8.533,5.333,13.867,5.333 h469.333c5.333,0,10.667-2.133,13.867-5.333c4.267-4.267,7.467-9.6,7.467-16V170L512,170z"></path><path style="fill:#54C0EB;" d="M294.4,339.6h-76.8L7.467,504.933l13.867,5.333h469.333c5.333,0,10.667-2.133,13.867-5.333 L294.4,339.6z"></path><circle style="fill:#CDD6E0;" cx="256" cy="182.8" r="90.667"></circle><path style="fill:#FFFFFF;" d="M190.933,190.267c0-39.467,35.2-72.533,72.533-72.533c35.2,0,57.6,25.6,57.6,56.533 S300.8,220.133,284.8,220.133c-10.667,0-17.067-6.4-18.133-13.867V205.2c-6.4,8.533-17.067,14.933-26.667,14.933 c-18.133,0-28.8-12.8-28.8-30.933c0-24.533,20.267-44.8,41.6-44.8c11.733,0,19.2,5.333,23.467,12.8l2.133-9.6h20.267l-9.6,44.8 c0,1.067-1.067,3.2-1.067,4.267c0,5.333,3.2,8.533,6.4,8.533c7.467,0,17.067-8.533,17.067-29.867c0-28.8-19.2-49.067-51.2-49.067 c-35.2,0-65.067,30.933-65.067,65.067c0,28.8,22.4,51.2,52.267,51.2c12.8,0,23.467-4.267,33.067-9.6l4.267,5.333 C273.067,245.733,260.267,250,246.4,250C215.467,247.867,190.933,222.267,190.933,190.267z M268.8,190.267l4.267-21.333 c-1.067-3.2-6.4-8.533-13.867-8.533c-14.933,0-25.6,12.8-25.6,26.667c0,9.6,5.333,16,14.933,16 C258.133,203.067,264.533,196.667,268.8,190.267z"></path></svg>