<!-- icon666.com - MILLIONS vector ICONS FREE --><svg viewBox="0 0 64 64" xmlns="http://www.w3.org/2000/svg"><g id="email-envelope-mail-send-letter"><path d="m60.05 21.41-25.94-16.1a4.01 4.01 0 0 0 -4.22 0l-25.94 16.1a2.009 2.009 0 0 0 -.95 1.7v.89l26.891 16.691a4 4 0 0 0 4.218 0l26.891-16.691v-.89a2.009 2.009 0 0 0 -.95-1.7z" fill="#006df0"></path><path d="m33 26-6 12 12.364-9.273z" fill="#ed1c24"></path><path d="m29.891 40.691-26.891-16.691v35a2.006 2.006 0 0 0 2 2h54a2.006 2.006 0 0 0 2-2v-35l-26.891 16.691a4 4 0 0 1 -4.218 0z" fill="#57a4ff"></path><path d="m57.944 25.9a34.108 34.108 0 0 1 -33.944 32.1h-21v1a2.006 2.006 0 0 0 2 2h54a2.006 2.006 0 0 0 2-2v-35z" fill="#2488ff"></path><path d="m60.05 21.41-2.05-1.271v5.723l3-1.862v-.89a2.009 2.009 0 0 0 -.95-1.7z" fill="#005ece"></path><path d="m33 26 27-22-36 18 3 16z" fill="#d80027"></path><path d="m40.038 8.989.002.001-.002-.001-28.038 8.011 12 5 36-18-27 22 14 6 6.942-14.379-.002-.001.002.001 7.058-14.621z" fill="#ff5023"></path><path d="m60.577 20.561-5.344-3.315 6.667-13.811a1 1 0 0 0 -1.175-1.4l-20.536 5.871-5.552-3.446a5.037 5.037 0 0 0 -5.274 0l-25.944 16.102a3 3 0 0 0 -1.419 2.548v35.89a3 3 0 0 0 3 3h54a3 3 0 0 0 3-3v-35.89a2.993 2.993 0 0 0 -1.423-2.549zm-1.058 1.7a1 1 0 0 1 .481.849v.334l-11.079 6.876 5.438-11.263zm-22.139 6.704-7.591 5.694 3.684-7.368zm-2.467-3.233 23.087-18.808-11.485 23.776zm-10.951-4.832-8.939-3.725 38.24-10.925zm28.388-11.957-19.982 16.282a.993.993 0 0 0 -.267.323l-4.67 9.341-2.309-12.332zm-12.85 20.931 6 2.571-11.917 7.4a2.981 2.981 0 0 1 -3.164 0l-2.3-1.428zm-9.083-23.714a3.024 3.024 0 0 1 3.166 0l4.009 2.488-20.723 5.921zm-25.939 16.1 7.062-4.383c.026.013.047.034.075.046l11.5 4.792 2.672 14.253-21.787-13.524v-.334a1 1 0 0 1 .478-.85zm54.522 37.74h-54a1 1 0 0 1 -1-1v-33.2l25.363 15.741a4.977 4.977 0 0 0 5.274 0l25.363-15.741v33.2a1 1 0 0 1 -1 1z" fill="#231f20"></path></g></svg>