<!-- icon666.com - MILLIONS vector ICONS FREE --><svg id="svg8" viewBox="0 0 32 32" xmlns="http://www.w3.org/2000/svg" xmlns:xlink="http://www.w3.org/1999/xlink" xmlns:svg="http://www.w3.org/2000/svg"><linearGradient id="linearGradient2978" gradientUnits="userSpaceOnUse" x1="1.92" x2="30.005" xlink:href="#linearGradient2976" y1="-38.234" y2="-10.072"></linearGradient><linearGradient id="linearGradient2976"><stop id="stop2972" offset="0" stop-color="#0ff"></stop><stop id="stop2974" offset="1" stop-color="#00f"></stop></linearGradient><linearGradient id="linearGradient2986" gradientUnits="userSpaceOnUse" x1="2.05" x2="30" xlink:href="#linearGradient2976" y1="-34.45" y2="-6.5"></linearGradient><linearGradient id="linearGradient2994" gradientUnits="userSpaceOnUse" x1="82.05" x2="109.95" xlink:href="#linearGradient2976" y1="-37.95" y2="-10.05"></linearGradient><linearGradient id="linearGradient3007" gradientUnits="userSpaceOnUse" x1="2.05" x2="29.95" xlink:href="#linearGradient2976" y1="-37.95" y2="-10.05"></linearGradient><linearGradient id="linearGradient3017" gradientUnits="userSpaceOnUse" x1="2" x2="29.95" xlink:href="#linearGradient2976" y1="-38" y2="-10.05"></linearGradient><linearGradient id="linearGradient3025" gradientUnits="userSpaceOnUse" x1="2.05" x2="29.707" xlink:href="#linearGradient2976" y1="-37.95" y2="-10.293"></linearGradient><linearGradient id="linearGradient3037" gradientUnits="userSpaceOnUse" x1="2.05" x2="30" xlink:href="#linearGradient2976" y1="-37.95" y2="-10"></linearGradient><linearGradient id="linearGradient3045" gradientUnits="userSpaceOnUse" x1="1.992" x2="29.942" xlink:href="#linearGradient2976" y1="-35.5" y2="-7.55"></linearGradient><linearGradient id="linearGradient3251" gradientUnits="userSpaceOnUse" x1="2.05" x2="30" xlink:href="#linearGradient2976" y1="-37.95" y2="-10"></linearGradient><linearGradient id="linearGradient3241" gradientUnits="userSpaceOnUse" x1="2" x2="30" xlink:href="#linearGradient2976" y1="-38" y2="-10"></linearGradient><linearGradient id="linearGradient3181" gradientUnits="userSpaceOnUse" x1="2.05" x2="30" xlink:href="#linearGradient2976" y1="-37.952" y2="-10.002"></linearGradient><linearGradient id="linearGradient3143" gradientUnits="userSpaceOnUse" x1="2.05" x2="30" xlink:href="#linearGradient2976" y1="-39.45" y2="-11.5"></linearGradient><linearGradient id="linearGradient3133" gradientUnits="userSpaceOnUse" x1="82.05" x2="110" xlink:href="#linearGradient2976" y1="42.05" y2="70"></linearGradient><linearGradient id="linearGradient3123" gradientUnits="userSpaceOnUse" x1="2" x2="29.95" xlink:href="#linearGradient2976" y1="-37.969" y2="-10.019"></linearGradient><linearGradient id="linearGradient3073" gradientUnits="userSpaceOnUse" x1="1.928" x2="31.029" xlink:href="#linearGradient2976" y1="-38.728" y2="-9.64"></linearGradient><linearGradient id="linearGradient3081" gradientUnits="userSpaceOnUse" x1="1.977" x2="29.977" xlink:href="#linearGradient2976" y1="-39.552" y2="-11.552"></linearGradient><linearGradient id="linearGradient3107" gradientUnits="userSpaceOnUse" x1="2.05" x2="30" xlink:href="#linearGradient2976" y1="-37.979" y2="-10.029"></linearGradient><linearGradient id="linearGradient3091" gradientUnits="userSpaceOnUse" x1="3" x2="29.95" xlink:href="#linearGradient2976" y1="-37" y2="-10.05"></linearGradient><g id="g1592" transform="translate(0 40)"><path id="path2473" d="m5-35c-.644912 0-1.240767.213906-1.732422.566406l11.605469 10.679688c.583855.496775 1.641098.516653 2.253953 0l11.68745-10.613282c-.50666-.390596-1.13194-.632812-1.81445-.632812zm-2.884766 2.226562c-.067673.24856-.115234.504792-.115234.773438v16c0 .74032.284349 1.41362.736328 1.93945l7.94336-10.832028zm27.802736.105469-8.71289 7.91211 8.03125 10.728519c.46878-.53009.76367-1.21702.76367-1.97266v-16c0-.232758-.0334-.473876-.082-.667969zm-17.755861 9.138672-7.683593 10.476567c.170075.03047.343255.05273.521484.05273h22c.16019 0 .31504-.0221.46875-.0469l-7.751953-10.357417c-.42201.382764-.844954.767729-1.265659 1.150425-1.400676 1.234612-3.501667 1.234612-4.902344 0-.461497-.423137-.924899-.850439-1.386685-1.275405z" fill="url(#linearGradient3091)" font-variant-ligatures="normal" font-variant-position="normal" font-variant-caps="normal" font-variant-numeric="normal" font-variant-alternates="normal" font-variant-east-asian="normal" font-feature-settings="normal" font-variation-settings="normal" text-indent="0" text-align="start" text-decoration-line="none" text-decoration-style="solid" text-decoration-color="#000000" text-transform="none" text-orientation="mixed" white-space="normal" shape-padding="0" shape-margin="0" inline-size="0" isolation="auto" mix-blend-mode="normal" solid-color="#000000" solid-opacity="1" vector-effect="none"></path></g></svg>