<!-- icon666.com - MILLIONS vector ICONS FREE --><svg viewBox="0 0 512 512" xmlns="http://www.w3.org/2000/svg" xmlns:xlink="http://www.w3.org/1999/xlink"><linearGradient id="linear-gradient" gradientTransform="matrix(0 -1 1 0 0 512)" gradientUnits="userSpaceOnUse" x1="38.65" x2="473.35" y1="38.65" y2="473.35"><stop offset="0" stop-color="#549eff"></stop><stop offset="1" stop-color="#006db0"></stop></linearGradient><linearGradient id="linear-gradient-2" gradientUnits="userSpaceOnUse" x1="136.57" x2="473.19" y1="136.88" y2="473.5"><stop offset="0" stop-opacity=".35"></stop><stop offset="1" stop-opacity="0"></stop></linearGradient><g id="Layer_2" data-name="Layer 2"><g id="InterfaceIcon"><g id="_02.Envelope" data-name="02.Envelope"><rect id="Background" fill="url(#linear-gradient)" height="512" rx="131.96" transform="matrix(0 1 -1 0 512 0)" width="512"></rect><path d="m512 273.45v106.55a132 132 0 0 1 -132 132h-107.17l-161-161-2.49-186.86 9.41-7.79h274.51l9.41 7.79z" fill="url(#linear-gradient-2)"></path><g id="_02.Envelope-2" fill="#fff" data-name="02.Envelope"><path d="m284.61 262.1 108.65-105.76a20.5 20.5 0 0 0 -7.77-1.53h-259a20.46 20.46 0 0 0 -7.77 1.53l108.67 105.76a41 41 0 0 0 57.22 0z"></path><path d="m223.64 273.2-114.31-109.07a20.33 20.33 0 0 0 -3.33 11.19v161.36a20.51 20.51 0 0 0 20.51 20.51h259a20.51 20.51 0 0 0 20.49-20.51v-161.36a20.42 20.42 0 0 0 -3.33-11.19l-114.31 109.07a46.86 46.86 0 0 1 -64.72 0z"></path></g></g></g></g></svg>