<!-- icon666.com - MILLIONS vector ICONS FREE --><svg viewBox="0 0 32 32" xmlns="http://www.w3.org/2000/svg" xmlns:xlink="http://www.w3.org/1999/xlink"><linearGradient id="lg1"><stop offset="0" stop-color="#42a5f5"></stop><stop offset="1" stop-color="#1e88e5"></stop></linearGradient><linearGradient id="SVGID_1_" gradientUnits="userSpaceOnUse" x1="1" x2="31" xlink:href="#lg1" y1="16" y2="16"></linearGradient><linearGradient id="SVGID_2_" gradientUnits="userSpaceOnUse" x1="16" x2="16" xlink:href="#lg1" y1="15.002" y2="27"></linearGradient><linearGradient id="SVGID_3_" gradientUnits="userSpaceOnUse" x1="1.3" x2="30.7" y1="12.5" y2="12.5"><stop offset="0" stop-color="#bbdefb"></stop><stop offset="1" stop-color="#64b5f6"></stop></linearGradient><g id="_x30_6_mail_message"><g><path d="m28 5h-24c-1.6542969 0-3 1.3457031-3 3v16c0 1.6542969 1.3457031 3 3 3h24c1.6542969 0 3-1.3457031 3-3v-16c0-1.6542969-1.3457031-3-3-3z" fill="url(#SVGID_1_)"></path><path d="m16.5800781 15.1899414c-.3500977-.25-.8100586-.25-1.1601563 0l-14.1201171 10.0898438c.4702148 1.0200195 1.5102539 1.7202148 2.7001953 1.7202148h24c1.1899414 0 2.2299805-.7001953 2.7001953-1.7202148z" fill="url(#SVGID_2_)"></path><path d="m28 5h-24c-1.1899414 0-2.2202148.7001953-2.7001953 1.7099609l14.0200195 13.0200195c.1899414.1801759.4399414.2700196.6801758.2700196s.4902344-.0898438.6801758-.2700195l14.0200195-13.0200196c-.4799805-1.0097656-1.5102539-1.7099609-2.7001953-1.7099609z" fill="url(#SVGID_3_)"></path></g></g></svg>