<!-- icon666.com - MILLIONS vector ICONS FREE --><svg id="Capa_1" enable-background="new 0 0 512.001 512.001" viewBox="0 0 512.001 512.001" xmlns="http://www.w3.org/2000/svg"><g clip-rule="evenodd" fill-rule="evenodd"><path d="m512 102.405c0-28.262-22.937-51.199-51.199-51.199h-409.596c-28.262 0-51.199 22.937-51.199 51.199v307.196c0 28.262 22.937 51.199 51.199 51.199h409.595c28.262 0 51.199-22.937 51.199-51.199v-307.196z" fill="#1565c0"></path><path d="m460.801 51.2c28.257 0 51.199 22.942 51.199 51.2v307.194c0 28.258-22.942 51.2-51.199 51.2h-22c28.257 0 51.199-22.942 51.199-51.2v-307.194c0-28.258-22.942-51.2-51.199-51.2z" fill="#0d47a1"></path><path d="m307.21 276.474 204.791 81.926v51.196c0 28.276-22.923 51.199-51.199 51.199-98.099 0-311.504 0-409.603 0-28.276 0-51.199-22.923-51.199-51.199 0-25.599 0-51.196 0-51.196l204.797-81.926z" fill="#1e88e5"></path><path d="m490 349.598 22 8.801v51.195c0 28.277-22.923 51.2-51.199 51.2-98.1 0-311.502 0-409.602 0h387.602c25.712 0 46.997-18.953 50.646-43.652h.553z" fill="#1976d2"></path><path d="m.006 147.947c0 3.507 1.843 6.758 4.864 8.576 30.003 17.997 190.59 114.328 237.949 142.77 8.115 4.864 18.253 4.864 26.342 0 47.385-28.416 207.972-124.773 237.975-142.77 3.021-1.818 4.864-5.069 4.864-8.576 0-8.96 0-27.238 0-45.542 0-13.568-5.402-26.598-15.001-36.198s-22.63-15.001-36.198-15.001c-98.098 0-311.497 0-409.595 0-13.593 0-26.598 5.402-36.198 15.001s-15.002 22.604-15.002 36.198z" fill="#42a5f5"></path><path d="m489.715 97.003c-1.229-11.595-6.389-22.484-14.709-30.805-9.602-9.603-22.626-14.998-36.205-14.998h21.996c13.579 0 26.603 5.395 36.205 14.998 9.601 9.602 14.995 22.626 14.994 36.206-.002 18.293-.003 36.586-.004 45.538 0 3.513-1.843 6.767-4.855 8.574l-17.137 10.283v-69.796z" fill="#2196f3"></path></g></svg>