<!-- icon666.com - MILLIONS vector ICONS FREE --><svg viewBox="0 0 64 64" xmlns="http://www.w3.org/2000/svg"><g id="Layer_14" data-name="Layer 14"><path d="m5 10.84a1.5 1.5 0 0 0 -2.5 1.16v40a1.52 1.52 0 0 0 .86 1.36 1.53 1.53 0 0 0 1.6-.2l24.2-20a1.52 1.52 0 0 0 0-2.32z" fill="#29b6f6"></path><path d="m60.64 10.64a1.53 1.53 0 0 0 -1.6.2l-24.2 20a1.52 1.52 0 0 0 0 2.32l24.2 20a1.53 1.53 0 0 0 1.6.2 1.5 1.5 0 0 0 .86-1.36v-40a1.5 1.5 0 0 0 -.86-1.36z" fill="#29b6f6"></path><path d="m61 50.84-24.21-20a1.52 1.52 0 0 0 -1.91 0l-2.88 2.35-2.84-2.35a1.53 1.53 0 0 0 -1.92 0l-24.24 20a1.5 1.5 0 0 0 1 2.66h56a1.5 1.5 0 0 0 1-2.66z" fill="#0097ce"></path><path d="m61.41 11.49a1.5 1.5 0 0 0 -1.41-1h-56a1.5 1.5 0 0 0 -1 2.66l28 23.15a1.53 1.53 0 0 0 1.92 0l28.08-23.14a1.51 1.51 0 0 0 .41-1.67z" fill="#99dbff"></path></g></svg>