<!-- icon666.com - MILLIONS vector ICONS FREE --><svg id="Mail_Inbox" viewBox="0 0 100 100" xmlns="http://www.w3.org/2000/svg" xmlns:xlink="http://www.w3.org/1999/xlink"><linearGradient id="_x32__1_" gradientUnits="userSpaceOnUse" x1="12.125" x2="87.875" y1="50" y2="50"><stop offset="0" stop-color="#2fa4ff"></stop><stop offset="1" stop-color="#2fa4ff" stop-opacity="0"></stop></linearGradient><path id="_x31_" d="m87.875 29.375v44.012c0 1.027-.84 1.875-1.875 1.875-24 0-48 0-72 0-1.035 0-1.875-.848-1.875-1.875v-44.012c.027-.965.746-1.242 1.5-.715l14.457 10.75c.828.617 2 .445 2.613-.383s.441-2-.383-2.617l-14.039-10.433c-.625-.504-.453-1.219.398-1.238h66.656c.836.02 1.102.691.398 1.238l-32.014 23.8c-.773.59-2.32.691-3.215.148l-11.469-8.523c-.832-.617-2.004-.438-2.613.391-.617.824-.445 1.996.383 2.613l14.09 10.473c.688.512 1.617.477 2.266-.023l35.156-26.145c.738-.543 1.543-.402 1.566.664zm-10.863 36.945c1.051 0 1.926-.809 1.926-1.875v-6.395c0-1.031-.844-1.875-1.875-1.875-1.039 0-1.875.844-1.875 1.875v2.691c-.027.996-.832 1.801-1.828 1.828h-9c-1.035 0-1.875.84-1.875 1.875s.84 1.875 1.875 1.875c4.214.001 8.437.001 12.652.001zm-20.629 0c1.035 0 1.875-.84 1.875-1.875s-.84-1.875-1.875-1.875h-6.383c-1.035 0-1.875.84-1.875 1.875s.84 1.875 1.875 1.875z" fill="#0e185f"></path><path id="_x32_" d="m87.875 29.375v44.012c0 1.027-.84 1.875-1.875 1.875-24 0-48 0-72 0-1.035 0-1.875-.848-1.875-1.875v-44.012c.027-.965.746-1.242 1.5-.715l14.457 10.75c.828.617 2 .445 2.613-.383s.441-2-.383-2.617l-14.039-10.433c-.625-.504-.453-1.219.398-1.238h66.656c.836.02 1.102.691.398 1.238l-32.014 23.8c-.773.59-2.32.691-3.215.148l-11.469-8.523c-.832-.617-2.004-.438-2.613.391-.617.824-.445 1.996.383 2.613l14.09 10.473c.688.512 1.617.477 2.266-.023l35.156-26.145c.738-.543 1.543-.402 1.566.664zm-10.863 36.945c1.051 0 1.926-.809 1.926-1.875v-6.395c0-1.031-.844-1.875-1.875-1.875-1.039 0-1.875.844-1.875 1.875v2.691c-.027.996-.832 1.801-1.828 1.828h-9c-1.035 0-1.875.84-1.875 1.875s.84 1.875 1.875 1.875c4.214.001 8.437.001 12.652.001zm-20.629 0c1.035 0 1.875-.84 1.875-1.875s-.84-1.875-1.875-1.875h-6.383c-1.035 0-1.875.84-1.875 1.875s.84 1.875 1.875 1.875z" fill="url(#_x32__1_)"></path></svg>