<!-- icon666.com - MILLIONS vector ICONS FREE --><svg viewBox="0 0 64 64" xmlns="http://www.w3.org/2000/svg" xmlns:xlink="http://www.w3.org/1999/xlink"><linearGradient id="linear-gradient" gradientUnits="userSpaceOnUse" x1="39.5" x2="24.5" y1="44.99" y2="19.01"><stop offset=".01" stop-color="#45dbff" stop-opacity=".5"></stop><stop offset=".21" stop-color="#31b2f1" stop-opacity=".64"></stop><stop offset=".53" stop-color="#167bdf" stop-opacity=".84"></stop><stop offset=".81" stop-color="#0659d4" stop-opacity=".96"></stop><stop offset="1" stop-color="#004dd0"></stop></linearGradient><linearGradient id="linear-gradient-2" gradientUnits="userSpaceOnUse" x1="32" x2="32" y1="47" y2="17"><stop offset="0" stop-color="#0099e7"></stop><stop offset=".2" stop-color="#039be8" stop-opacity=".98"></stop><stop offset=".39" stop-color="#0aa3eb" stop-opacity=".92"></stop><stop offset=".59" stop-color="#17afef" stop-opacity=".83"></stop><stop offset=".78" stop-color="#2ac1f6" stop-opacity=".7"></stop><stop offset=".97" stop-color="#41d7fe" stop-opacity=".53"></stop><stop offset=".99" stop-color="#45dbff" stop-opacity=".5"></stop></linearGradient><linearGradient id="linear-gradient-3" gradientUnits="userSpaceOnUse" x1="32" x2="32" y1="5" y2="13.25"><stop offset=".01" stop-color="#45dbff" stop-opacity=".5"></stop><stop offset=".03" stop-color="#41d7fe" stop-opacity=".53"></stop><stop offset=".22" stop-color="#2ac1f6" stop-opacity=".7"></stop><stop offset=".41" stop-color="#17afef" stop-opacity=".83"></stop><stop offset=".61" stop-color="#0aa3eb" stop-opacity=".92"></stop><stop offset=".8" stop-color="#039be8" stop-opacity=".98"></stop><stop offset="1" stop-color="#0099e7"></stop></linearGradient><linearGradient id="linear-gradient-4" x1="15.82" x2="15.82" xlink:href="#linear-gradient-3" y1="12.47" y2="19.18"></linearGradient><linearGradient id="linear-gradient-5" x1="5" x2="13.25" xlink:href="#linear-gradient-3" y1="32" y2="32"></linearGradient><linearGradient id="linear-gradient-6" x1="15.82" x2="15.82" xlink:href="#linear-gradient-3" y1="51.53" y2="44.82"></linearGradient><linearGradient id="linear-gradient-7" xlink:href="#linear-gradient-3" y1="59" y2="50.75"></linearGradient><linearGradient id="linear-gradient-8" x1="48.18" x2="48.18" xlink:href="#linear-gradient-3" y1="51.53" y2="44.82"></linearGradient><linearGradient id="linear-gradient-9" x1="50.75" x2="59" xlink:href="#linear-gradient-2" y1="32" y2="32"></linearGradient><linearGradient id="linear-gradient-10" x1="48.18" x2="48.18" xlink:href="#linear-gradient-3" y1="12.47" y2="19.18"></linearGradient><g id="brightness"><path d="m32 17a15 15 0 1 0 15 15 15 15 0 0 0 -15-15z" fill="url(#linear-gradient)"></path><path d="m44.55 23.79a15 15 0 0 0 -22.12 19.75 15 15 0 1 1 22.12-19.75z" fill="#27ffff"></path><path d="m32 17a15 15 0 1 0 15 15 15 15 0 0 0 -15-15zm0 27a12 12 0 1 1 12-12 12 12 0 0 1 -12 12z" fill="url(#linear-gradient-2)"></path><path d="m33.5 6.5v5.25a1.5 1.5 0 0 1 -3 0v-5.25a1.5 1.5 0 0 1 3 0z" fill="url(#linear-gradient-3)"></path><path d="m18.74 16.62a1.5 1.5 0 1 1 -2.12 2.12l-3.71-3.74a1.5 1.5 0 0 1 2.09-2.09z" fill="url(#linear-gradient-4)"></path><path d="m11.75 33.5h-5.25a1.5 1.5 0 0 1 0-3h5.25a1.5 1.5 0 0 1 0 3z" fill="url(#linear-gradient-5)"></path><path d="m18.74 45.26a1.5 1.5 0 0 1 0 2.12l-3.74 3.71a1.5 1.5 0 0 1 -2.09-2.09l3.71-3.71a1.5 1.5 0 0 1 2.12-.03z" fill="url(#linear-gradient-6)"></path><path d="m33.5 52.25v5.25a1.5 1.5 0 0 1 -3 0v-5.25a1.5 1.5 0 0 1 3 0z" fill="url(#linear-gradient-7)"></path><path d="m51.09 49a1.5 1.5 0 1 1 -2.09 2.09l-3.71-3.71a1.5 1.5 0 0 1 2.12-2.12z" fill="url(#linear-gradient-8)"></path><path d="m59 32a1.5 1.5 0 0 1 -1.5 1.5h-5.25a1.5 1.5 0 0 1 0-3h5.25a1.5 1.5 0 0 1 1.5 1.5z" fill="url(#linear-gradient-9)"></path><path d="m45.26 18.74a1.5 1.5 0 0 1 0-2.12l3.74-3.71a1.5 1.5 0 0 1 2.09 2.09l-3.71 3.71a1.5 1.5 0 0 1 -2.12 0z" fill="url(#linear-gradient-10)"></path></g></svg>