<!-- icon666.com - MILLIONS vector ICONS FREE --><svg viewBox="0 0 152 152" xmlns="http://www.w3.org/2000/svg"><g id="Layer_2" data-name="Layer 2"><g id="_02.brightness" data-name="02.brightness"><g id="background"><path id="background-2" d="m124.81 149.4a459 459 0 0 1 -97.62 0 27.69 27.69 0 0 1 -24.59-24.59 459 459 0 0 1 0-97.62 27.69 27.69 0 0 1 24.59-24.59 459 459 0 0 1 97.62 0 27.69 27.69 0 0 1 24.59 24.59 459 459 0 0 1 0 97.62 27.69 27.69 0 0 1 -24.59 24.59z" fill="#10720d" data-name="background"></path><path id="shade" d="m142.9 12.12c-8.62 15.88-33.9 57.1-66.9 63.88-32.4 6.72-57.8 47-67.09 63.65a27.66 27.66 0 0 1 -6.31-14.84 460.34 460.34 0 0 1 0-97.62 27.69 27.69 0 0 1 24.59-24.59 460.34 460.34 0 0 1 97.62 0 27.71 27.71 0 0 1 18.09 9.52z" fill="#138710"></path></g><g id="icon" fill="#fff"><path d="m76 60.53a15.47 15.47 0 1 1 -15.47 15.47 15.49 15.49 0 0 1 15.47-15.47m0-7a22.47 22.47 0 1 0 22.47 22.47 22.47 22.47 0 0 0 -22.47-22.47z"></path><path d="m72.98 38h6.05v12.21h-6.05z"></path><path d="m50.43 47.34h6.05v12.21h-6.05z" transform="matrix(.707 -.707 .707 .707 -22.14 53.45)"></path><path d="m38 72.98h12.21v6.05h-12.21z"></path><path d="m47.34 95.53h12.21v6.05h-12.21z" transform="matrix(.707 -.707 .707 .707 -54.03 66.66)"></path><path d="m72.98 101.79h6.05v12.21h-6.05z"></path><path d="m95.53 92.44h6.05v12.21h-6.05z" transform="matrix(.707 -.707 .707 .707 -40.82 98.55)"></path><path d="m101.79 72.98h12.21v6.05h-12.21z"></path><path d="m92.44 50.43h12.21v6.05h-12.21z" transform="matrix(.707 -.707 .707 .707 -8.93 85.34)"></path></g></g></g></svg>