<!-- icon666.com - MILLIONS vector ICONS FREE --><svg id="Layer_1" viewBox="0 0 512 512" xmlns="http://www.w3.org/2000/svg" xmlns:xlink="http://www.w3.org/1999/xlink" data-name="Layer 1"><linearGradient id="GradientFill_1" gradientUnits="userSpaceOnUse" x1="74.981" x2="437.019" y1="437.019" y2="74.981"><stop offset="0" stop-color="#001b39"></stop><stop offset=".12" stop-color="#002443"></stop><stop offset=".323" stop-color="#003d5e"></stop><stop offset=".587" stop-color="#00658a"></stop><stop offset=".896" stop-color="#009dc6"></stop><stop offset="1" stop-color="#00b1dc"></stop></linearGradient><path d="m256 0c141.385 0 256 114.615 256 256s-114.615 256-256 256-256-114.615-256-256 114.615-256 256-256zm75.2 256a75.2 75.2 0 1 0 -22.025 53.172 74.96 74.96 0 0 0 22.025-53.172zm-194.21 8.822a8.822 8.822 0 1 0 0-17.644h-22.149a8.822 8.822 0 1 0 0 17.644zm25.434 97.231 15.662-15.662a8.823 8.823 0 1 0 -12.477-12.477l-15.662 15.662a8.823 8.823 0 1 0 12.477 12.477zm102.4 35.106v-22.149a8.822 8.822 0 1 0 -17.644 0v22.149a8.822 8.822 0 1 0 17.644 0zm97.231-47.583-15.662-15.662a8.822 8.822 0 1 0 -12.476 12.477l15.661 15.662a8.823 8.823 0 1 0 12.477-12.477zm35.106-102.4h-22.151a8.822 8.822 0 1 0 0 17.644h22.149a8.822 8.822 0 1 0 0-17.644zm-47.583-97.231-15.661 15.662a8.774 8.774 0 0 0 -1.967 2.85 8.867 8.867 0 0 0 -.636 3.432 8.83 8.83 0 0 0 15.079 6.2l15.662-15.662a8.823 8.823 0 1 0 -12.477-12.477zm-102.4-35.106v22.151a8.822 8.822 0 1 0 17.644 0v-22.149a8.822 8.822 0 1 0 -17.644 0zm-66.5 56.963a8.782 8.782 0 0 0 -2.591-6.195l-15.662-15.662a8.823 8.823 0 1 0 -12.477 12.477l15.662 15.662a8.821 8.821 0 0 0 15.068-6.282z" fill="url(#GradientFill_1)" fill-rule="evenodd"></path></svg>