<!-- icon666.com - MILLIONS vector ICONS FREE --><svg id="Layer_1" viewBox="0 0 512 512" xmlns="http://www.w3.org/2000/svg" data-name="Layer 1"><circle cx="256" cy="256" fill="#0cb0ff" r="256" transform="matrix(.707 -.707 .707 .707 -106.039 256)"></circle><g fill-rule="evenodd"><path d="m360.723 489.584h.008q.729-.329 1.456-.663 3.6-1.647 7.138-3.4l.147-.073.125-.062q7.036-3.492 13.823-7.4c.395-.228.787-.462 1.179-.7q1.608-.936 3.2-1.9.906-.548 1.808-1.1 3.913-2.4 7.733-4.942a257.807 257.807 0 0 0 34.46-27.429v.005l.6-.569.005.006c.274-.261.544-.525.814-.79l.014-.013.014-.013.009-.009.042-.04q1.6-1.537 3.178-3.094l.248-.247.031-.03.019-.019.037-.036.013-.013.043-.043.006-.007.05-.049.07-.07.009-.009.06-.061.019-.018.051-.052.028-.027.042-.043.036-.036.033-.034.046-.046.024-.024.055-.055.015-.015.063-.064.006-.006q1.95-1.961 3.856-3.965l-.006-.005.568-.6-.005-.006a257.878 257.878 0 0 0 27.429-34.459q2.539-3.819 4.942-7.732.553-.9 1.1-1.808.962-1.594 1.9-3.206c.235-.392.469-.784.7-1.18q3.831-6.649 7.262-13.55l.038-.075.1-.2.063-.126q1.794-3.609 3.477-7.284.333-.728.663-1.456v-.008c.244-.543.481-1.09.719-1.637q.567-1.287 1.121-2.581l.033-.078.02-.047.013-.029.033-.077.022-.052.011-.026.033-.077.023-.055.01-.022q.526-1.233 1.04-2.474.253-.612.5-1.226l.012-.028.012-.029.011-.029.012-.029.012-.029c.159-.386.318-.772.473-1.16a254.073 254.073 0 0 0 9.46-28.284q1-3.7 1.9-7.448l-142.704-165.097.253.293.235.3.218.311.2.32.182.327.166.333.148.341.131.345.113.35.1.355.078.357.061.36.043.362.026.364.009.364-.009.365-.026.363-.043.363-.061.36-.079.357-.1.355-.113.35-.13.345-.148.341-.166.333-.183.327-.2.32-.218.311-.234.3-.253.293-.27.283-22.442 22.452-.285.269-.294.252-.3.234-.312.217-.32.2-.327.182-.334.165-.34.147-.346.13-.35.114-.353.095-.358.078-.36.061-.363.044-.364.026-.364.008-.365-.008-.364-.026-.363-.044-.361-.061-.357-.078-.355-.095-.351-.114-.345-.129-.34-.148-.335-.165-.327-.182-.32-.2-.115-.08-68.088-75.255.437.584.381.627.319.664.256.7.187.728.115.754.039.777v31.747l-.039.776-.115.754-.187.728-.255.7-.32.664-.38.626-.438.585-.49.54-.539.49-.585.437-.626.38-.664.32-.7.256-.728.187-.754.115-.777.039-.777-.039-.754-.115-.728-.187-.7-.256-.664-.319-.626-.381-.585-.436-.539-.491 83.429 89.117.029.125.7 3.921.508 3.985.308 4.043.1 4.1-.1 4.1-.308 4.043-.508 3.985-.7 3.921-.887 3.849-1.075 3.779-1.255 3.7-1.435 3.621-1.6 3.53-1.762 3.436-1.921 3.339-2.076 3.234-2.224 3.125-2.368 3.013-.465.537-133.891-134.834.268.283.252.294.234.3.217.312.2.32.182.327.165.334.147.341.13.345.113.351.1.354.078.358.061.36.043.362.026.364.008.364-.008.365-.026.363-.044.363-.061.36-.078.358-.095.354-.113.35-.13.345-.148.341-.165.334-.182.328-.2.32-.217.312-.235.3-.251.294-.269.284-.283.269-.294.251-.3.235-.312.216-.32.2-.327.182-.334.165-.34.148-.346.129-.351.114-.354.095-.358.078-.361.061-.363.044-.364.026-.365.008-.364-.008-.365-.026-.362-.044-.36-.061-.357-.078-.354-.095-.35-.114-.345-.129-.34-.148-.334-.165-.327-.182-.321-.2-.312-.217-.3-.235-.3-.251-.284-.269 134.829 133.901-.537.466-3.012 2.368-3.126 2.224-3.235 2.075-3.337 1.922-3.437 1.762-3.53 1.6-3.618 1.43-3.7 1.255-3.78 1.078-3.853.892-3.922.7-3.984.508-4.043.308-4.1.1-4.1-.1-4.043-.308-3.984-.508-3.922-.7-.125-.028-89.117-83.43.49.539.437.585.38.626.32.664.255.7.187.728.115.754.039.777-.039.777-.114.754-.187.728-.256.7-.319.664-.381.626-.437.585-.49.539-.539.491-.585.436-.626.38-.664.32-.7.256-.728.187-.754.114-.777.04h-31.734l-.777-.04-.754-.115-.728-.187-.7-.255-.664-.32-.626-.38-.585-.437 75.25 68.084.085.121.2.32.182.328.165.334.147.34.13.345.113.351.1.355.078.357.061.36.043.363.026.363.008.365-.008.364-.026.364-.044.362-.061.36-.078.359-.095.353-.113.351-.13.345-.148.341-.165.334-.182.327-.2.321-.217.311-.235.3-.251.294-.269.283-22.453 22.443-.283.269-.293.252-.3.235-.311.218-.32.2-.327.184-.335.166-.34.148-.346.132-.35.113-.355.1-.358.079-.361.062-.362.044-.364.026-.365.009-.363-.009-.363-.027-.362-.044-.359-.061-.357-.079-.354-.1-.35-.114-.345-.131-.34-.148-.334-.166-.327-.183-.319-.2-.312-.218-.3-.235-.293-.252 165.069 142.714c.655-.156 1.309-.319 1.963-.48q2.754-.679 5.485-1.418a254.3 254.3 0 0 0 28.285-9.46q.6-.24 1.189-.485l.029-.012.028-.012.029-.012.029-.012.029-.012q.6-.243 1.2-.491c2.403-.99 4.792-2.009 7.157-3.074z" fill="#0092d8"></path><path d="m183.128 328.873a7.611 7.611 0 0 1 0 10.747l-22.453 22.443a7.592 7.592 0 1 1 -10.737-10.737l22.444-22.453a7.609 7.609 0 0 1 10.747 0zm178.935 22.452a7.593 7.593 0 1 1 -10.737 10.738l-22.452-22.443a7.6 7.6 0 1 1 10.746-10.747zm-33.189-168.2a7.608 7.608 0 0 1 0-10.746l22.453-22.444a7.593 7.593 0 0 1 10.737 10.738l-22.442 22.452a7.608 7.608 0 0 1 -10.747 0zm-178.937-22.451a7.592 7.592 0 1 1 10.737-10.737l22.454 22.443a7.6 7.6 0 0 1 -10.748 10.747zm-4.595 102.926h-31.742a7.6 7.6 0 1 1 0-15.19h31.747a7.6 7.6 0 0 1 0 15.19zm118.258 103.058v31.742a7.6 7.6 0 1 1 -15.19 0v-31.742a7.595 7.595 0 1 1 15.189 0zm142.4-110.658a7.593 7.593 0 0 1 -7.6 7.6h-31.741a7.6 7.6 0 0 1 0-15.19h31.747a7.592 7.592 0 0 1 7.594 7.59zm-157.594-110.659v-31.741a7.595 7.595 0 1 1 15.189 0v31.746a7.595 7.595 0 1 1 -15.189 0zm7.594 30.95a79.709 79.709 0 1 0 79.709 79.709 79.795 79.795 0 0 0 -79.709-79.709z" fill="#fff"></path></g></svg>