<!-- icon666.com - MILLIONS vector ICONS FREE --><svg viewBox="0 0 512 512" xmlns="http://www.w3.org/2000/svg" xmlns:xlink="http://www.w3.org/1999/xlink"><linearGradient id="a" gradientTransform="matrix(1 0 0 -1 0 -15158)" gradientUnits="userSpaceOnUse" x1="0" x2="512" y1="-15414" y2="-15414"><stop offset="0" stop-color="#00f38d"></stop><stop offset="1" stop-color="#009eff"></stop></linearGradient><path d="m512 256c0 141.386719-114.613281 256-256 256s-256-114.613281-256-256 114.613281-256 256-256 256 114.613281 256 256zm0 0" fill="url(#a)"></path><g fill="#fff"><path d="m256 162.609375c-51.496094 0-93.390625 41.894531-93.390625 93.390625s41.894531 93.390625 93.390625 93.390625 93.390625-41.894531 93.390625-93.390625-41.894531-93.390625-93.390625-93.390625zm0 156.78125c-34.953125 0-63.390625-28.4375-63.390625-63.390625s28.4375-63.390625 63.390625-63.390625 63.390625 28.4375 63.390625 63.390625-28.4375 63.390625-63.390625 63.390625zm0 0"></path><path d="m241 56h30v73.898438h-30zm0 0"></path><path d="m56 241h73.898438v30h-73.898438zm0 0"></path><path d="m241 382.101562h30v73.898438h-30zm0 0"></path><path d="m382.101562 241h73.898438v30h-73.898438zm0 0"></path><path d="m386.8125 103.96875 21.214844 21.214844-52.253906 52.25-21.210938-21.210938zm0 0"></path><path d="m125.1875 103.96875 52.253906 52.253906-21.210937 21.214844-52.253907-52.253906zm0 0"></path><path d="m125.183594 408.03125-21.214844-21.214844 52.253906-52.25 21.214844 21.210938zm0 0"></path><path d="m386.804688 408.03125-52.253907-52.253906 21.214844-21.210938 52.253906 52.253906zm0 0"></path></g></svg>