<!-- icon666.com - MILLIONS vector ICONS FREE --><svg viewBox="0 0 64 64" xmlns="http://www.w3.org/2000/svg"><g id="Brightness"><path d="m52 15.39a25.99761 25.99761 0 1 0 6 16.61 25.937 25.937 0 0 0 -6-16.61z" fill="#1192cb"></path><path d="m52 15.39a25.9996 25.9996 0 1 0 -31.8 39.78 28.019 28.019 0 0 0 31.8-39.78z" fill="#4bc4ef"></path><circle cx="17.481" cy="15.477" fill="#aef4f4" r="2.5"></circle><circle cx="13.434" cy="19.769" fill="#aef4f4" r="1.25"></circle><g fill="#fff"><path d="m32 38.5a6.5 6.5 0 1 1 6.5-6.5 6.50753 6.50753 0 0 1 -6.5 6.5zm0-9a2.5 2.5 0 1 0 2.5 2.5 2.50294 2.50294 0 0 0 -2.5-2.5z"></path><path d="m30 20.6001v-3.6001a2.00007 2.00007 0 0 1 4 0v3.6001a2.00007 2.00007 0 0 1 -4 0z"></path><path d="m22.5249 25.353-2.54541-2.54541a1.99986 1.99986 0 0 1 2.82813-2.82813l2.54538 2.54544c1.90462 1.90341-.99862 4.65989-2.8281 2.8281z"></path><path d="m20.6001 34h-3.6001a2.00007 2.00007 0 0 1 0-4h3.6001a2.00007 2.00007 0 0 1 0 4z"></path><path d="m19.97949 41.19238 2.54541-2.54538a1.99986 1.99986 0 0 1 2.8281 2.8281l-2.54541 2.54541a1.99983 1.99983 0 0 1 -2.8281-2.82813z"></path><path d="m30 47v-3.6001a2.00007 2.00007 0 0 1 4 0v3.6001a2.00007 2.00007 0 0 1 -4 0z"></path><path d="m41.19238 44.02051-2.54538-2.54541a1.99986 1.99986 0 0 1 2.8281-2.8281l2.54541 2.54541c1.90459 1.90338-.99865 4.65987-2.82813 2.8281z"></path><path d="m47 34h-3.6001a2.00007 2.00007 0 0 1 0-4h3.6001a2.00007 2.00007 0 0 1 0 4z"></path><path d="m38.647 22.5249 2.54541-2.54541a1.99986 1.99986 0 0 1 2.82813 2.82813l-2.54544 2.54538a1.99983 1.99983 0 0 1 -2.8281-2.8281z"></path></g></g></svg>