<!-- icon666.com - MILLIONS vector ICONS FREE --><svg id="Layer_1" viewBox="0 0 512 512" xmlns="http://www.w3.org/2000/svg" xmlns:xlink="http://www.w3.org/1999/xlink" data-name="Layer 1"><linearGradient id="GradientFill_1" gradientUnits="userSpaceOnUse" x1="74.981" x2="437.019" y1="437.019" y2="74.981"><stop offset="0" stop-color="#001b39"></stop><stop offset=".12" stop-color="#002443"></stop><stop offset=".323" stop-color="#003d5e"></stop><stop offset=".587" stop-color="#00658a"></stop><stop offset=".896" stop-color="#009dc6"></stop><stop offset="1" stop-color="#00b1dc"></stop></linearGradient><path d="m256 0c141.385 0 256 114.615 256 256s-114.615 256-256 256-256-114.615-256-256 114.615-256 256-256zm-96.145 159.9a5.485 5.485 0 0 0 .022 7.716l14.479 14.473a5.093 5.093 0 0 0 3.861 1.606.192.192 0 0 1 .024 0 5.091 5.091 0 0 0 3.873-1.629 5.48 5.48 0 0 0 -.023-7.712l-14.474-14.478a5.092 5.092 0 0 0 -3.867-1.6.167.167 0 0 0 -.023 0 5.08 5.08 0 0 0 -3.872 1.623zm4.558 32.132a19.14 19.14 0 0 0 13.8 5.725h.07a19.141 19.141 0 0 0 13.835-5.813 19.571 19.571 0 0 0 -.088-27.533l-14.472-14.479a19.147 19.147 0 0 0 -13.812-5.719h-.064a19.144 19.144 0 0 0 -13.84 5.807 19.585 19.585 0 0 0 .088 27.539l14.479 14.472zm-44.35 64a5.483 5.483 0 0 0 5.474 5.437h20.471a5.471 5.471 0 0 0 5.467-5.508 5.483 5.483 0 0 0 -5.467-5.438h-20.472a5.471 5.471 0 0 0 -5.473 5.507zm39.8 13.734a19.132 19.132 0 0 0 5.678-13.892 19.579 19.579 0 0 0 -19.53-19.412h-20.474a19.537 19.537 0 0 0 -19.537 19.661 19.585 19.585 0 0 0 19.535 19.413h20.472a19.122 19.122 0 0 0 13.852-5.766zm22.231 67.875a5.46 5.46 0 0 0 -.024-7.757 5.473 5.473 0 0 0 -7.71.022l-14.48 14.474a5.481 5.481 0 0 0 .024 7.763 5.483 5.483 0 0 0 7.716-.024zm-17.678-17.677-14.479 14.472a19.542 19.542 0 0 0 .088 27.715 19.584 19.584 0 0 0 27.539-.088l14.474-14.479a19.523 19.523 0 0 0 -.088-27.709 19.577 19.577 0 0 0 -27.533.088zm97.061 66.5v-20.472a5.483 5.483 0 0 0 -5.461-5.473.114.114 0 0 0 -.047.006 5.483 5.483 0 0 0 -5.438 5.467v20.473a5.473 5.473 0 0 0 5.508 5.472 5.485 5.485 0 0 0 5.439-5.473zm-5.467-40h-.13a19.579 19.579 0 0 0 -19.412 19.529v20.472a19.534 19.534 0 0 0 19.52 19.535h.135a19.584 19.584 0 0 0 19.412-19.535v-20.473a19.534 19.534 0 0 0 -19.529-19.529zm96.139 5.636a5.487 5.487 0 0 0 -.022-7.717l-14.48-14.472a5.086 5.086 0 0 0 -3.861-1.605.192.192 0 0 0 -.024 0 5.084 5.084 0 0 0 -3.873 1.629 5.477 5.477 0 0 0 .025 7.71l14.472 14.479a5.1 5.1 0 0 0 3.867 1.6h.023a5.081 5.081 0 0 0 3.873-1.623zm-4.557-32.132a19.136 19.136 0 0 0 -13.806-5.725h-.07a19.133 19.133 0 0 0 -13.834 5.813 19.571 19.571 0 0 0 .088 27.533l14.472 14.477a19.143 19.143 0 0 0 13.811 5.72h.064a19.135 19.135 0 0 0 13.84-5.807 19.584 19.584 0 0 0 -.088-27.539zm42.76-60.112a5.079 5.079 0 0 0 1.588-3.89 5.483 5.483 0 0 0 -5.473-5.438h-20.475a5.471 5.471 0 0 0 -5.467 5.507 5.483 5.483 0 0 0 5.468 5.437h20.471a5.1 5.1 0 0 0 3.885-1.618zm-3.885-23.391h-20.474a19.538 19.538 0 0 0 -19.531 19.659 19.581 19.581 0 0 0 19.53 19.413h20.472a19.535 19.535 0 0 0 19.536-19.66 19.586 19.586 0 0 0 -19.536-19.413zm-56.553-62.109a5.46 5.46 0 0 0 .022 7.759 5.479 5.479 0 0 0 7.711-.024l14.479-14.472a5.483 5.483 0 0 0 -.024-7.764 5.484 5.484 0 0 0 -7.715.023zm3.867 23.379a19.458 19.458 0 0 0 13.81-5.7l14.479-14.473a19.542 19.542 0 0 0 -.089-27.714 19.584 19.584 0 0 0 -27.539.087l-14.472 14.478a19.522 19.522 0 0 0 .087 27.709 19.46 19.46 0 0 0 13.724 5.612zm-83.251-72.2v20.474a5.483 5.483 0 0 0 5.461 5.472.11.11 0 0 0 .047-.006 5.483 5.483 0 0 0 5.439-5.467v-20.472a5.473 5.473 0 0 0 -5.461-5.473h-.047a5.483 5.483 0 0 0 -5.438 5.472zm5.468 40h.128a19.579 19.579 0 0 0 19.412-19.529v-20.471a19.536 19.536 0 0 0 -19.526-19.535c-.046 0-.094 0-.135 0a19.583 19.583 0 0 0 -19.412 19.535v20.472a19.532 19.532 0 0 0 19.535 19.53zm0 157.282a66.82 66.82 0 1 0 -66.818-66.817 66.9 66.9 0 0 0 66.82 66.819zm0-147.7a80.883 80.883 0 1 0 80.885 80.883 80.979 80.979 0 0 0 -80.883-80.882z" fill="url(#GradientFill_1)" fill-rule="evenodd"></path></svg>