<!-- icon666.com - MILLIONS vector ICONS FREE --><svg id="Layer_1" viewBox="0 0 512 512" xmlns="http://www.w3.org/2000/svg" xmlns:xlink="http://www.w3.org/1999/xlink" data-name="Layer 1"><linearGradient id="GradientFill_1" gradientUnits="userSpaceOnUse" x1="74.987" x2="437.013" y1="437.013" y2="74.987"><stop offset="0" stop-color="#001b39"></stop><stop offset=".12" stop-color="#002443"></stop><stop offset=".323" stop-color="#003d5e"></stop><stop offset=".587" stop-color="#00658a"></stop><stop offset=".896" stop-color="#009dc6"></stop><stop offset="1" stop-color="#00b1dc"></stop></linearGradient><path d="m384.335 256a128.332 128.332 0 1 0 -37.587 90.747 127.939 127.939 0 0 0 37.587-90.747zm-331.445 15.056a15.056 15.056 0 1 0 0-30.112h-37.8a15.045 15.045 0 0 0 -5.82 1.081 15.02 15.02 0 0 0 -4.879 3.349 15.022 15.022 0 0 0 -3.332 4.879 15.158 15.158 0 0 0 14.031 20.8zm43.41 165.944 26.73-26.729a15.057 15.057 0 1 0 -21.294-21.294l-26.736 26.723a15.056 15.056 0 1 0 21.3 21.3zm174.76 59.915v-37.8a15.056 15.056 0 1 0 -30.112 0v37.8a15.056 15.056 0 1 0 30.112 0zm165.94-81.215-26.729-26.73a15.057 15.057 0 1 0 -21.294 21.294l26.723 26.736a15.056 15.056 0 1 0 21.3-21.3zm59.915-174.76h-37.8a15.056 15.056 0 1 0 0 30.112h37.8a15.056 15.056 0 1 0 0-30.112zm-81.215-165.94-26.73 26.729a15.057 15.057 0 1 0 21.294 21.294l26.736-26.723a15.056 15.056 0 1 0 -21.3-21.3zm-174.756-59.912v37.8a15.056 15.056 0 1 0 30.112 0v-37.8a15.045 15.045 0 0 0 -1.081-5.82 15.02 15.02 0 0 0 -3.349-4.879 15.012 15.012 0 0 0 -4.879-3.332 15.158 15.158 0 0 0 -20.8 14.031zm-113.5 97.217a14.994 14.994 0 0 0 -4.422-10.573l-26.722-26.732a15.056 15.056 0 1 0 -21.3 21.3l26.729 26.73a15.053 15.053 0 0 0 25.716-10.721z" fill="url(#GradientFill_1)" fill-rule="evenodd"></path></svg>