<!-- icon666.com - MILLIONS vector ICONS FREE --><svg enable-background="new 0 0 32 32" viewBox="0 0 32 32" xmlns="http://www.w3.org/2000/svg"><g id="BG"><path d="m26 32h-20c-3.314 0-6-2.686-6-6v-20c0-3.314 2.686-6 6-6h20c3.314 0 6 2.686 6 6v20c0 3.314-2.686 6-6 6z" fill="#e3f8fa"></path></g><g id="bold"><circle cx="16" cy="16" fill="#26c6da" r="5"></circle><g><path d="m16 10.474c-.368 0-.667-.298-.667-.667v-1.14c0-.369.299-.667.667-.667s.667.298.667.667v1.141c0 .368-.299.666-.667.666z" fill="#8ce1eb"></path></g><g><path d="m10.633 13.57c-.101 0-.204-.023-.3-.072l-.967-.488c-.329-.166-.46-.567-.294-.896.167-.329.567-.46.896-.294l.967.489c.329.166.46.567.294.896-.118.232-.353.365-.596.365z" fill="#8ce1eb"></path></g><g><path d="m9.667 20.252c-.243 0-.478-.133-.596-.366-.166-.329-.035-.73.294-.896l.967-.489c.328-.167.729-.035.896.294.166.329.035.73-.294.896l-.967.489c-.096.049-.199.072-.3.072z" fill="#8ce1eb"></path></g><g><path d="m16 24c-.368 0-.667-.298-.667-.667v-1.141c0-.368.299-.667.667-.667s.667.298.667.667v1.141c0 .369-.299.667-.667.667z" fill="#8ce1eb"></path></g><g><path d="m22.333 20.252c-.101 0-.204-.023-.3-.072l-.967-.489c-.329-.166-.46-.567-.294-.896.166-.328.568-.46.896-.294l.967.489c.329.166.46.567.294.896-.118.233-.353.366-.596.366z" fill="#8ce1eb"></path></g><g><path d="m21.367 13.57c-.243 0-.478-.133-.596-.366-.166-.329-.035-.73.294-.896l.967-.489c.328-.167.729-.035.896.294.166.329.035.73-.294.896l-.967.489c-.096.05-.199.072-.3.072z" fill="#8ce1eb"></path></g></g></svg>