<!-- icon666.com - MILLIONS vector ICONS FREE --><svg fill="none" viewBox="0 0 512 512" xmlns="http://www.w3.org/2000/svg" xmlns:xlink="http://www.w3.org/1999/xlink"><linearGradient id="paint0_linear_18_463" gradientUnits="userSpaceOnUse" x1="255.999" x2="255.999" y1="11.116" y2="490.465"><stop offset="0" stop-color="#e8f5ff"></stop><stop offset="1" stop-color="#b4dfff"></stop></linearGradient><linearGradient id="paint1_linear_18_463" gradientUnits="userSpaceOnUse" x1="256.5" x2="256.5" y1="99" y2="414"><stop offset="0" stop-color="#466aff"></stop><stop offset="1" stop-color="#06b8ff"></stop></linearGradient><path d="m494.999 114.32c-1.426-25.3479-12.137-49.2827-30.089-67.2346-17.951-17.952-41.886-28.6635-67.234-30.0893-94.374-5.3333-188.974-5.3333-283.348 0-25.3479 1.4266-49.2827 12.1382-67.2352 30.0899-17.9524 17.9516-28.6651 41.886-30.0928 67.234-5.3333 94.376-5.3333 188.978 0 283.353 1.4278 25.348 12.1404 49.282 30.0929 67.234 17.9525 17.951 41.8873 28.663 67.2351 30.089 94.374 5.346 188.974 5.346 283.348 0 25.348-1.425 49.283-12.137 67.234-30.089 17.952-17.951 28.663-41.886 30.089-67.234 5.333-94.375 5.333-188.977 0-283.353z" fill="url(#paint0_linear_18_463)"></path><path d="m367.905 302.594 46.094-46.094-46.094-46.094v-65.312h-65.311l-46.095-46.094-46.093 46.094h-65.312v65.312l-46.094 46.094 46.094 46.094v65.312h65.312l46.093 46.094 46.095-46.094h65.311zm-111.406 37.46c-46.093 0-83.553-37.46-83.553-83.554s37.46-83.554 83.553-83.554c46.095 0 83.555 37.46 83.555 83.554s-37.46 83.554-83.555 83.554z" fill="url(#paint1_linear_18_463)"></path></svg>