<!-- icon666.com - MILLIONS vector ICONS FREE --><svg id="Layer_1" viewBox="0 0 512 512" xmlns="http://www.w3.org/2000/svg" xmlns:xlink="http://www.w3.org/1999/xlink" data-name="Layer 1"><linearGradient id="GradientFill_1" gradientUnits="userSpaceOnUse" x1="74.981" x2="437.019" y1="437.019" y2="74.981"><stop offset="0" stop-color="#001b39"></stop><stop offset=".12" stop-color="#002443"></stop><stop offset=".323" stop-color="#003d5e"></stop><stop offset=".587" stop-color="#00658a"></stop><stop offset=".896" stop-color="#009dc6"></stop><stop offset="1" stop-color="#00b1dc"></stop></linearGradient><path d="m256 0c141.385 0 256 114.615 256 256s-114.615 256-256 256-256-114.615-256-256 114.615-256 256-256zm-77.572 135.7 12.961 22.448a7.031 7.031 0 0 0 12.176-7.033l-12.965-22.445a7.03 7.03 0 0 0 -12.176 7.031zm-17.707 65.29a7.025 7.025 0 0 0 -2.572-9.6l-22.449-12.962a7.03 7.03 0 1 0 -7.03 12.172l22.447 12.962a7.027 7.027 0 0 0 9.6-2.574zm-21.768 62.04a7.031 7.031 0 0 0 0-14.062h-25.922a7.031 7.031 0 1 0 0 14.062zm21.768 47.976a7.026 7.026 0 0 0 -9.6-2.572l-22.451 12.966a7.03 7.03 0 1 0 7.032 12.176l22.447-12.96a7.028 7.028 0 0 0 2.572-9.605zm42.844 49.875a7.03 7.03 0 0 0 -12.176-7.031l-12.961 22.45a7.03 7.03 0 1 0 12.176 7.03l12.961-22.447zm59.467 12.164a7.032 7.032 0 0 0 -14.063 0v25.922a7.032 7.032 0 1 0 14.063 0v-25.921zm70.541 3.252-12.962-22.447a7.03 7.03 0 1 0 -12.175 7.031l12.964 22.449a7.031 7.031 0 0 0 12.177-7.032zm52.327-45.297a7.027 7.027 0 0 0 -2.572-9.6l-22.448-12.96a7.03 7.03 0 1 0 -7.031 12.175l22.451 12.957a7.026 7.026 0 0 0 9.6-2.572zm20.1-75a7.029 7.029 0 0 0 -7.031-7.031h-25.922a7.031 7.031 0 1 0 0 14.062h25.921a7.031 7.031 0 0 0 7.032-7.031zm-54.72-55.009a7.026 7.026 0 0 0 9.6 2.574l22.45-12.965a7.03 7.03 0 0 0 -7.031-12.176l-22.448 12.961a7.023 7.023 0 0 0 -2.571 9.6zm-42.844-49.875a7.03 7.03 0 1 0 12.175 7.033l12.961-22.449a7.03 7.03 0 1 0 -12.172-7.03l-12.961 22.446zm-59.467-12.163a7.032 7.032 0 1 0 14.063 0v-25.921a7.031 7.031 0 0 0 -14.062 0v25.923zm14.063 190.681a73.969 73.969 0 0 0 0-147.268zm-61.9-24.076a73.866 73.866 0 0 0 47.836 24.076v-24.076zm47.836-123.192a73.889 73.889 0 0 0 -48.556 24.884h48.556zm-58.288 38.946a73.413 73.413 0 0 0 -8.349 28.06h66.638v-28.06zm-8.28 42.123a73.5 73.5 0 0 0 8.719 28.06h57.85v-28.06zm73.6-95.466a88.031 88.031 0 1 0 88.031 88.031 88.133 88.133 0 0 0 -88.031-88.031z" fill="url(#GradientFill_1)" fill-rule="evenodd"></path></svg>