<!-- icon666.com - MILLIONS vector ICONS FREE --><svg id="Layer_1" viewBox="0 0 512 512" xmlns="http://www.w3.org/2000/svg" xmlns:xlink="http://www.w3.org/1999/xlink" data-name="Layer 1"><linearGradient id="GradientFill_1" gradientUnits="userSpaceOnUse" x1="74.981" x2="437.019" y1="437.019" y2="74.981"><stop offset="0" stop-color="#001b39"></stop><stop offset=".12" stop-color="#002443"></stop><stop offset=".323" stop-color="#003d5e"></stop><stop offset=".587" stop-color="#00658a"></stop><stop offset=".896" stop-color="#009dc6"></stop><stop offset="1" stop-color="#00b1dc"></stop></linearGradient><path d="m256 0c141.385 0 256 114.615 256 256s-114.615 256-256 256-256-114.615-256-256 114.615-256 256-256zm-76.758 132.687 13.158 22.792a4.818 4.818 0 1 0 8.355-4.8l-13.155-22.793a4.818 4.818 0 1 0 -8.355 4.8zm71.919 171.33h-55.878a77.488 77.488 0 0 0 55.878 29.24zm0-42.767h-72.391a76.94 76.94 0 0 0 9.971 33.09h62.42zm-56.521-52.444h56.521v-30.063a77.48 77.48 0 0 0 -56.521 30.063zm56.521 42.767v-33.09h-62.884a76.952 76.952 0 0 0 -9.558 33.09zm9.678-72.83v154.514a77.409 77.409 0 0 0 0-154.514zm-9.678-67.9v26.318a4.839 4.839 0 1 0 9.678 0v-26.322a4.839 4.839 0 1 0 -9.678 0zm73.239 17.043-13.159 22.792a4.818 4.818 0 1 0 8.355 4.8l13.159-22.792a4.818 4.818 0 1 0 -8.355-4.8zm54.91 51.356-22.789 13.158a4.818 4.818 0 1 0 4.8 8.355l22.793-13.155a4.818 4.818 0 1 0 -4.8-8.355zm21.848 71.919h-26.315a4.839 4.839 0 1 0 0 9.678h26.318a4.839 4.839 0 1 0 0-9.678zm-17.044 73.239-22.792-13.159a4.818 4.818 0 1 0 -4.8 8.355l22.792 13.159a4.818 4.818 0 0 0 4.8-8.355zm-51.356 54.91-13.158-22.789a4.818 4.818 0 1 0 -8.355 4.8l13.155 22.793a4.818 4.818 0 0 0 8.355-4.8zm-71.919 21.848v-26.315a4.839 4.839 0 1 0 -9.678 0v26.318a4.839 4.839 0 1 0 9.678 0zm-73.239-17.044 13.159-22.792a4.818 4.818 0 1 0 -8.355-4.8l-13.159 22.792a4.818 4.818 0 0 0 8.355 4.8zm-32.12-64.514a4.818 4.818 0 0 0 -4.8-8.355l-22.794 13.155a4.818 4.818 0 0 0 4.8 8.355zm-44.641-58.76h26.318a4.839 4.839 0 1 0 0-9.678h-26.318a4.839 4.839 0 1 0 0 9.678zm17.047-73.24 22.792 13.159a4.818 4.818 0 0 0 4.8-8.355l-22.793-13.159a4.818 4.818 0 1 0 -4.8 8.355z" fill="url(#GradientFill_1)" fill-rule="evenodd"></path></svg>