<!-- icon666.com - MILLIONS vector ICONS FREE --><svg clip-rule="evenodd" fill-rule="evenodd" stroke-linejoin="round" stroke-miterlimit="2" viewBox="0 0 48 48" xmlns="http://www.w3.org/2000/svg" xmlns:xlink="http://www.w3.org/1999/xlink"><linearGradient id="_Linear1" gradientTransform="matrix(25 -26 26 25 351 307.481)" gradientUnits="userSpaceOnUse" x1="0" x2="1" y1="0" y2="0"><stop offset="0" stop-color="#0056e0"></stop><stop offset=".01" stop-color="#0056e0"></stop><stop offset="1" stop-color="#00e5b8"></stop></linearGradient><g transform="translate(0 -212)"><g transform="translate(-340 -60.481)"><g id="ngicon"><path d="m362.5 313v2c0 .828.672 1.5 1.5 1.5s1.5-.672 1.5-1.5v-2c0-.828-.672-1.5-1.5-1.5s-1.5.672-1.5 1.5zm12.299-1.296-1-1.732c-.414-.717-1.332-.963-2.049-.549s-.963 1.332-.549 2.049l1 1.732c.414.717 1.332.963 2.049.55.717-.414.963-1.333.549-2.05zm-20.598-1.732-1 1.732c-.414.717-.168 1.636.549 2.05.717.413 1.635.167 2.049-.55l1-1.732c.414-.717.168-1.635-.549-2.049s-1.635-.168-2.049.549zm27.003-5.771-1.732-1c-.717-.414-1.635-.168-2.049.549s-.168 1.635.549 2.049l1.732 1c.717.414 1.636.168 2.05-.549.413-.717.167-1.635-.55-2.049zm-32.676-1-1.732 1c-.717.414-.963 1.332-.55 2.049.414.717 1.333.963 2.05.549l1.732-1c.717-.414.963-1.332.549-2.049s-1.332-.963-2.049-.549zm15.472-17.701c-5.795 0-10.5 4.705-10.5 10.5s4.705 10.5 10.5 10.5 10.5-4.705 10.5-10.5-4.705-10.5-10.5-10.5zm19 9h-2c-.828 0-1.5.672-1.5 1.5s.672 1.5 1.5 1.5h2c.828 0 1.5-.672 1.5-1.5s-.672-1.5-1.5-1.5zm-36 0h-2c-.828 0-1.5.672-1.5 1.5s.672 1.5 1.5 1.5h2c.828 0 1.5-.672 1.5-1.5s-.672-1.5-1.5-1.5zm32.704-9.299-1.732 1c-.717.414-.963 1.332-.549 2.049s1.332.963 2.049.549l1.732-1c.717-.414.963-1.332.55-2.049-.414-.717-1.333-.963-2.05-.549zm-29.676 1-1.732-1c-.717-.414-1.636-.168-2.05.549-.413.717-.167 1.635.55 2.049l1.732 1c.717.414 1.635.168 2.049-.549s.168-1.635-.549-2.049zm22.173-7.405-1 1.732c-.414.717-.168 1.635.549 2.049s1.635.168 2.049-.549l1-1.732c.414-.717.168-1.636-.549-2.05-.717-.413-1.635-.167-2.049.55zm-15.402 1.732-1-1.732c-.414-.717-1.332-.963-2.049-.55-.717.414-.963 1.333-.549 2.05l1 1.732c.414.717 1.332.963 2.049.549s.963-1.332.549-2.049zm5.701-3.528v2c0 .828.672 1.5 1.5 1.5s1.5-.672 1.5-1.5v-2c0-.828-.672-1.5-1.5-1.5s-1.5.672-1.5 1.5z" fill="url(#_Linear1)"></path></g></g></g></svg>