<!-- icon666.com - MILLIONS vector ICONS FREE --><svg viewBox="0 0 152 152" xmlns="http://www.w3.org/2000/svg" xmlns:xlink="http://www.w3.org/1999/xlink"><linearGradient id="linear-gradient" gradientUnits="userSpaceOnUse" x1="50.14" x2="140.32" y1="50.34" y2="140.52"><stop offset="0" stop-color="#0d8fb3"></stop><stop offset="1" stop-color="#0d8fb3" stop-opacity="0"></stop></linearGradient><g id="Layer_2" data-name="Layer 2"><g id="_49.sun" data-name="49.sun"><rect id="background" fill="#12bae9" height="152" rx="30.14" width="152"></rect><path id="shadow" d="m152 98.37v23.49a30.23 30.23 0 0 1 -30.14 30.14h-23.86l-55.36-55.34 9.72-10.53-12.91-12.91c.28-3.75 17.5-7.5 17.5-7.5l-5.71-18.59 18.18 11.63c3.46-20.14 9.19-18.84 9.19-18.84l13.14 13.14 9-5.93z" fill="url(#linear-gradient)"></path><g id="icon" fill="#fff"><path d="m63.76 114a2.66 2.66 0 0 1 -.92-.16 2.75 2.75 0 0 1 -1.83-2.7l.61-16.68-16 3.5a2.72 2.72 0 0 1 -2.95-1.3 2.79 2.79 0 0 1 .33-3.24l11-12.42-14.55-7.78a2.76 2.76 0 0 1 -1.45-2.92 2.73 2.73 0 0 1 2.33-2.25l16.27-2.28-6.2-15.48a2.75 2.75 0 0 1 .8-3.16 2.69 2.69 0 0 1 3.21-.2l13.89 8.85 5-15.86a2.73 2.73 0 0 1 5.22 0l5 15.86 13.89-8.85a2.68 2.68 0 0 1 3.21.2 2.77 2.77 0 0 1 .8 3.17l-6.2 15.47 16.28 2.28a2.73 2.73 0 0 1 2.5 2.25 2.76 2.76 0 0 1 -1.41 2.92l-14.59 7.78 11 12.39a2.74 2.74 0 0 1 .33 3.24 2.69 2.69 0 0 1 -3 1.3l-16-3.5.6 16.68a2.74 2.74 0 0 1 -4.91 1.78l-10.02-13.11-10.07 13.14a2.72 2.72 0 0 1 -2.17 1.08zm12.24-17.39a2.7 2.7 0 0 1 2.16 1.07l9.84 12.77-.59-16.19a2.75 2.75 0 0 1 1-2.23 2.72 2.72 0 0 1 2.33-.57l15.63 3.41-10.8-12.06a2.77 2.77 0 0 1 .75-4.28l14.17-7.61-15.86-2.23a2.71 2.71 0 0 1 -2-1.34 2.77 2.77 0 0 1 -.17-2.43l6-15-13.46 8.58a2.7 2.7 0 0 1 -2.39.26 2.73 2.73 0 0 1 -1.71-1.76l-4.9-15.39-4.9 15.39a2.73 2.73 0 0 1 -4.1 1.5l-13.49-8.61 6 15a2.75 2.75 0 0 1 -.18 2.42 2.69 2.69 0 0 1 -2 1.34l-15.82 2.27 14.17 7.61a2.76 2.76 0 0 1 1.41 2 2.73 2.73 0 0 1 -.66 2.32l-10.75 12.02 15.63-3.41a2.72 2.72 0 0 1 2.33.57 2.75 2.75 0 0 1 1 2.23l-.64 16.19 9.79-12.77a2.74 2.74 0 0 1 2.21-1.07z"></path><path d="m76 68.55a7.45 7.45 0 1 1 -7.45 7.45 7.46 7.46 0 0 1 7.45-7.45m0-3a10.45 10.45 0 1 0 10.45 10.45 10.45 10.45 0 0 0 -10.45-10.45z"></path></g></g></g></svg>