<!-- icon666.com - MILLIONS vector ICONS FREE --><svg viewBox="0 0 32 32" xmlns="http://www.w3.org/2000/svg"><g id="Sun"><circle cx="16" cy="16" fill="#4294ff" r="10"></circle><path d="m16 5a1 1 0 0 1 -1-1v-1a1 1 0 0 1 2 0v1a1 1 0 0 1 -1 1z" fill="#4294ff"></path><g fill="#2965ed"><path d="m7.5146 8.5146a.9967.9967 0 0 1 -.707-.2929l-.707-.7071a1 1 0 0 1 1.414-1.414l.7071.707a1 1 0 0 1 -.7071 1.707z"></path><path d="m4 17h-1a1 1 0 0 1 0-2h1a1 1 0 0 1 0 2z"></path><path d="m6.8076 26.1924a1 1 0 0 1 -.707-1.707l.707-.7071a1 1 0 0 1 1.4141 1.4141l-.7071.707a.9967.9967 0 0 1 -.707.293z"></path><path d="m16 30a1 1 0 0 1 -1-1v-1a1 1 0 0 1 2 0v1a1 1 0 0 1 -1 1z"></path></g><path d="m25.1924 26.1924a.9967.9967 0 0 1 -.707-.293l-.7071-.707a1 1 0 0 1 1.4141-1.4141l.707.7071a1 1 0 0 1 -.707 1.707z" fill="#4294ff"></path><path d="m29 17h-1a1 1 0 0 1 0-2h1a1 1 0 0 1 0 2z" fill="#4294ff"></path><path d="m24.4854 8.5146a1 1 0 0 1 -.7071-1.707l.7071-.707a1 1 0 1 1 1.414 1.414l-.707.7071a.9967.9967 0 0 1 -.707.2929z" fill="#4294ff"></path><path d="m20.17 25.08a9.8629 9.8629 0 0 1 -4.17.92 9.9983 9.9983 0 0 1 -5.72-18.2c1.35 6.08 4.14 13.05 9.89 17.28z" fill="#2965ed"></path></g></svg>