<!-- icon666.com - MILLIONS vector ICONS FREE --><svg viewBox="0 0 176 176" xmlns="http://www.w3.org/2000/svg"><g id="Layer_2" data-name="Layer 2"><g id="Sun"><rect id="background" fill="#5e3ace" height="176" rx="37.58" width="176"></rect><path id="shadow" d="m176 122.26v16.15a37.59 37.59 0 0 1 -37.59 37.59h-16.15l-61.13-61.13 12.07-3.24 14.58 14.58-.35-5.36-26.61-26.6v-12.5l10.63 10.63 6.55-5.5-13.64-13.68 8.84-8.84 11.85 11.85 8.08-4-11.38-11.39h12.5l27.34 27.35 4.41-.17-14.37-14.8 3.24-12.07z" fill="#321982"></path><g id="icon" fill="#fff"><circle cx="88" cy="88" r="20.73"></circle><path d="m88 50-6.25 10.83h12.5z"></path><path d="m61.13 61.13 3.23 12.07 8.84-8.84z"></path><path d="m50 88 10.83 6.25v-12.5z"></path><path d="m61.13 114.87 12.07-3.23-8.84-8.84z"></path><path d="m88 126 6.25-10.83h-12.5z"></path><path d="m114.87 114.87-3.23-12.07-8.84 8.84z"></path><path d="m126 88-10.83-6.25v12.5z"></path><path d="m114.87 61.13-12.07 3.23 8.84 8.84z"></path></g></g></g></svg>