<!-- icon666.com - MILLIONS vector ICONS FREE --><svg clip-rule="evenodd" fill-rule="evenodd" image-rendering="optimizeQuality" shape-rendering="geometricPrecision" text-rendering="geometricPrecision" viewBox="0 0 6.82666 6.82666" xmlns="http://www.w3.org/2000/svg"><g id="Layer_x0020_1"><circle cx="3.413" cy="3.413" fill="#90c" r="3.333"></circle><g id="_354280456" fill="#fefefe"><path id="_354280792" d="m3.15627 1.95661c-.0012874 0-.0025748-.0000315-.00387008-.00012205-.0309213-.00211811-.0542874-.028874-.0521929-.0597992.0111496-.163866.097689-.463768.552118-.631539.0235709-.00870866.0500157-.00069685.0647992.0195984.0147913.0202795.0143031.0479331-.00118898.067685-.00174409.00222835-.180465.235732-.14902.523591.0033622.030815-.0188937.0585236-.0497087.0618898-.0307992.00328346-.0585236-.0188898-.0618858-.0497008-.0195748-.17922.0288543-.336972.0793386-.4465-.245732.137417-.312878.321748-.322453.462587-.00201575.0296181-.0266772.0523228-.055937.052311z"></path><path id="_354281104" d="m3.41333 1.93506c-.815126 0-1.47828.663142-1.47828 1.47828.00000394.815122.663154 1.47828 1.47828 1.47828.815138-.00001968 1.47828-.66315 1.47828-1.47828 0-.815142-.663142-1.47828-1.47828-1.47828zm0 3.06879c-.877024 0-1.59054-.713496-1.59054-1.59052.00000394-.877031.713512-1.59054 1.59054-1.59054.877028-.00001968 1.59053.713508 1.59053 1.59054 0 .877016-.713504 1.59054-1.59053 1.59052z"></path><path id="_354280888" d="m4.26366 2.19215c-.00755906 0-.0152402-.00152362-.0225984-.00476772-.028374-.0125118-.0412283-.0456299-.0287362-.0739961.0726654-.16489.193457-.277264.291902-.346846-.281287-.00396457-.431701.122091-.510437.239201-.0172953.0257205-.0521693.0325669-.0778976.0152677-.0257244-.0173031-.0325551-.0521693-.0152677-.0778937.0915866-.136252.316488-.352531.793776-.270661.024752.00424409.0436535.0244094.046315.049374.00266142.0249606-.0115748.0486614-.034874.0580236-.00263386.00105512-.274055.113882-.390787.378799-.00924803.021-.0298189.0335079-.0513937.0335z"></path><path id="_354280768" d="m4.7886 2.78837c-.0172874 0-.0343425-.00794882-.0453346-.0229724-.0183189-.0250197-.0128819-.0601339.0121339-.0784449.145327-.106409.306067-.143299.426083-.154343-.241941-.144169-.435173-.110091-.561949-.0479094-.0278504.013626-.0614685.00215354-.0751102-.0256772-.0136496-.0278307-.00215354-.0614567.0256772-.0751102.14748-.0723425.450531-.147425.823118.162311.0192992.0160354.0256063.0429646.0154213.0659173-.0101732.0229291-.0343189.0363583-.0592165.032815-.00279528-.00041339-.294189-.0383976-.527724.132571-.00998819.00731102-.0215945.0108465-.0330984.0108425z"></path><path id="_354280528" d="m5.50887 3.72789c-.012252 0-.0244921-.00399606-.0346457-.0119567-.00224016-.00174803-.235736-.180504-.523591-.14902-.0308425.00331496-.0585276-.0188819-.0618898-.0496969-.0033622-.0308307.0188819-.0585236.0496969-.0618937.179189-.0195827.33698.0288701.446504.0793504-.137413-.24574-.321736-.312886-.462583-.322453-.0309252-.0021063-.0542953-.0288858-.052189-.059811.00209449-.0309409.0288819-.054374.0597992-.0521929.163854.011122.463764.0976811.631539.552114.00869685.0235512.00069291.0500118-.0195945.0647992-.00985827.00718504-.0214685.0107638-.0330472.0107598z"></path><path id="_354281080" d="m5.09887 4.74104c-.0226929 0-.0434291-.0137638-.0520472-.035189-.00106693-.00263386-.11389-.274063-.378811-.390791-.0283622-.0125157-.0412283-.0456339-.0287244-.0739961.0124921-.0283701.0456339-.0412323.0739882-.0287283.164913.0726457.277276.193445.346858.291894.00388189-.281449-.122102-.431705-.239213-.510429-.0257244-.0173031-.0325551-.0521732-.0152677-.0778937.0172953-.025748.0521811-.0325669.0778976-.0152756.136244.0915866.352567.316496.270665.793768-.00424803.0247362-.0243976.0436654-.0493622.0463268-.00200787.00020472-.00400787.00032284-.00598425.00031496z"></path><path id="_354279928" d="m4.23727 5.41345c-.00766142 0-.0154055-.00155512-.0227362-.00479528-.0229567-.0102008-.0363543-.0343701-.0328189-.0592205.0003937-.00283465.0383819-.294201-.132583-.527724-.0183071-.0250039-.0128819-.0601339.0121339-.0784449.0250039-.0183189.0601417-.012878.0784409.0121339.106402.145319.143311.306079.154339.426094.144173-.241945.110106-.435173.0479252-.561961-.0136496-.0278465-.00215354-.0614567.0256772-.0751102.0278307-.0136654.0614567-.00215354.0751102.025689.0723346.147469.147421.45052-.162311.823106-.0109134.0131299-.0268701.020248-.0431772.0202323z"></path><path id="_354280384" d="m3.15491 5.565c-.0175709 0-.0345827-.00825197-.045378-.0230709-.0147835-.0202992-.0142992-.0479252.00119685-.067685.00174409-.00225197.180465-.235744.149008-.523594-.00335827-.030811.0188858-.0585236.0497087-.0618937.0307835-.00338189.0585236.0188819.0618976.0497047.0195748.179205-.0288622.33698-.0793504.446504.245744-.137413.312882-.321748.322461-.462594.0021063-.0309449.0288898-.0542835.059811-.052185.0309213.00209843.0542835.0288701.0521811.0597953-.0111378.163854-.0976693.463776-.552106.631543-.0063622.00235827-.0129331.00348031-.0194291.00347638z"></path><path id="_354279760" d="m2.33276 5.17223c-.0612913 0-.127965-.00556299-.200504-.0180079-.0247402-.00426772-.0436575-.0244016-.0463189-.0493622-.00265748-.0249764.0115827-.0486654.034878-.0580315.00262992-.00108268.274055-.11389.390791-.378811.0124961-.0283622.0456142-.0412283.0739921-.0287244.0283622.0124882.0412283.045622.0287323.0739882-.0726614.164894-.193441.277276-.291902.346858.281358.00404331.431717-.122102.510437-.239213.0173031-.0257362.052185-.0325748.0779016-.0152717.0257244.0172913.032563.0521732.0152677.0778976-.0776732.115516-.25126.288677-.593276.288677z"></path><path id="_354280000" d="m1.97952 4.50681c-.150039 0-.337106-.0526457-.546071-.226354-.019311-.0160709-.0256063-.0429764-.0154331-.0659213.010185-.0229606.0343661-.0363268.0592205-.032811.00281102.00038189.294197.0383819.52772-.132583.0250039-.0183425.0601299-.012878.0784409.0121299.018315.025.0128819.0601339-.0121339.0784449-.145327.10639-.306071.143311-.426087.154343.241945.14415.435173.110091.561957.0479094.0278268-.0136693.0614646-.00215354.0751063.025689.0136496.0278189.00214961.0614488-.0256772.0750984-.0647638.0317598-.159559.0640669-.277043.0640551z"></path><path id="_354279904" d="m1.90054 3.72658c-.00127953 0-.00257087-.00003937-.0038622-.00012598-.163846-.0111457-.463764-.0976772-.631535-.552106-.00231102-.00625984-.00344488-.0127205-.00348031-.0191142-.00010236-.0176772.00817323-.0348307.0230748-.0456929.0202835-.0147913.0479331-.0142874.067689.00119685.00224016.00172835.235689.180457.523594.149008.0308071-.00338976.0585197.0188858.0618898.0497087.0033622.030811-.0188898.0585236-.0497008.0618937-.179193.0195591-.336976-.0288622-.4465-.0793346.137409.245728.32174.312866.462579.322445.0309291.00210236.0542953.028878.052189.0598071-.00200787.029622-.0266772.0523268-.055937.052315z"></path><path id="_354279784" d="m1.97437 2.93557c-.0107677 0-.0216535-.00307087-.0312598-.00952756-.13624-.0916063-.352571-.316508-.270673-.793776.00424803-.024748.0244094-.0436575.049374-.0463189.0249843-.00265748.0486575.0115748.0580236.034878.00107087.00262992.113886.274059.378807.390787.0283661.0124961.0412283.0456299.0287283.074-.0124961.0283425-.0456142.0412362-.0739961.0287205-.164902-.0726614-.277268-.193441-.34685-.29189-.00387795.281429.122102.431709.239209.510429.0257323.0172795.032563.0521693.0152717.0778976-.0108346.0160984-.0285748.0248189-.0466339.0247992z"></path><path id="_354280096" d="m2.43434 2.28798c-.020748 0-.040685-.0115276-.050437-.0314134-.0723307-.147492-.147421-.450524.162311-.82311.0160512-.019311.0429646-.0255984.0659213-.0154291.022937.0101693.0363386.0343622.032811.0592205-.00038976.00280315-.0383858.294197.132583.527709.018311.0250118.0128701.0601378-.0121339.0784488-.0250197.0182992-.0601417.012878-.0784409-.0121299-.106421-.145358-.143323-.306071-.15435-.426091-.144161.241921-.110094.435169-.0479134.561957.0136496.0278268.00215354.0614567-.0256772.0751102-.00794882.00388583-.0163819.00573622-.0246732.00572835z"></path></g></g></svg>