<!-- icon666.com - MILLIONS vector ICONS FREE --><svg fill="none" viewBox="0 0 512 512" xmlns="http://www.w3.org/2000/svg" xmlns:xlink="http://www.w3.org/1999/xlink"><linearGradient id="paint0_linear_18_454" gradientUnits="userSpaceOnUse" x1="255.999" x2="255.999" y1="11.116" y2="490.465"><stop offset="0" stop-color="#e8f5ff"></stop><stop offset="1" stop-color="#b4dfff"></stop></linearGradient><linearGradient id="paint1_linear_18_454" gradientUnits="userSpaceOnUse" x1="256.125" x2="256.125" y1="99" y2="414"><stop offset="0" stop-color="#466aff"></stop><stop offset="1" stop-color="#06b8ff"></stop></linearGradient><path d="m494.999 114.32c-1.426-25.3479-12.137-49.2827-30.089-67.2346-17.951-17.952-41.886-28.6635-67.234-30.0893-94.374-5.3333-188.974-5.3333-283.348 0-25.3479 1.4266-49.2827 12.1382-67.2352 30.0899-17.9524 17.9516-28.6651 41.886-30.0928 67.234-5.3333 94.376-5.3333 188.978 0 283.353 1.4278 25.348 12.1404 49.282 30.0929 67.234 17.9525 17.951 41.8873 28.663 67.2351 30.089 94.374 5.346 188.974 5.346 283.348 0 25.348-1.425 49.283-12.137 67.234-30.089 17.952-17.951 28.663-41.886 30.089-67.234 5.333-94.375 5.333-188.977 0-283.353z" fill="url(#paint0_linear_18_454)"></path><path d="m216.75 99c-28.665 0-55.597 7.875-78.75 21.262 47.093 27.248 78.75 77.963 78.75 136.238s-31.657 108.99-78.75 136.237c23.153 13.388 50.085 21.263 78.75 21.263 86.94 0 157.5-70.56 157.5-157.5s-70.56-157.5-157.5-157.5z" fill="url(#paint1_linear_18_454)"></path></svg>