<!-- icon666.com - MILLIONS vector ICONS FREE --><svg clip-rule="evenodd" fill-rule="evenodd" image-rendering="optimizeQuality" shape-rendering="geometricPrecision" text-rendering="geometricPrecision" viewBox="0 0 6.82666 6.82666" xmlns="http://www.w3.org/2000/svg"><g id="Layer_x0020_1"><circle cx="3.413" cy="3.413" fill="#96f" r="3.333"></circle><g id="_352900504" fill="#fefefe"><path id="_352901344" d="m3.88317 3.2558h-.91211c-.16602 0-.301075-.135035-.301075-.301075.00000787-.166047.135035-.301079.301075-.301079.0108386-.00000394.0215512.00058661.0322717.00175197.0335433-.174622.18798-.307315.371768-.307315.0598701-.00000787.11778.013748.170236.0402677.0847441-.124315.224732-.19939.378193-.19939.143831-.00000787.281094.068937.367185.184276.0185276.0248583.0134567.060063-.0114055.0785866-.0248465.0185197-.0600591.0134528-.0785827-.0114094-.0659961-.0884331-.167114-.13913-.277197-.13913-.13122-.00001181-.249496.0727323-.308776.189925-.00739764.0147165-.0209606.0253504-.0369567.029252-.0159843.00379134-.0328504.00048819-.0462126-.00916535-.0457205-.0333504-.0998386-.0508937-.156484-.0508937-.145551-.00000787-.265004.118366-.266173.263831-.00018504.0181339-.00906693.0351024-.0239843.0455354-.014811.0104291-.0338346.0129685-.0508937.00692126-.0201654-.00711811-.0413425-.0107244-.0629882-.0107244-.104028-.00000394-.188756.0847244-.188756.18876.00000787.104024.0847244.18876.188756.18876l.91211-.00000394c.0310197 0 .0561575.0251535.0561575.0561614.00000394.0309961-.0251575.0561614-.0561575.0561575z"></path><path id="_352901128" d="m3.88317 2.76596c-.104114 0-.18876.0847283-.18876.188764.00001181.104024.0846299.18876.18876.18876l1.30407-.00000394c.14674 0 .266157-.119433.266157-.266173.00000787-.134063-.100134-.247646-.232929-.264122-.023378-.00293701-.0425079-.0202835-.0477717-.0432953-.0360669-.158154-.174618-.268606-.337154-.268606-.131122-.00001181-.249398.0727323-.308681.189925-.0073937.0147165-.0209646.0253504-.0369528.029252-.0159843.00379134-.0329528.00048819-.0462126-.00916535-.0457165-.0333504-.0998386-.0508937-.156587-.0508937-.145469-.00000787-.264906.118366-.266075.263831-.0001811.0181339-.00907087.0351024-.0239843.0455354-.0148071.0104291-.0338346.0129685-.0509921.00692126-.0200866-.00711811-.0413425-.0107244-.0628858-.0107283zm1.30407.489839h-1.30407c-.166043 0-.301079-.135035-.301079-.301075.00001181-.166047.135031-.301079.301079-.301079.0108386-.00000394.0215433.00058661.0322717.00175197.0335433-.174622.18798-.307315.371665-.307315.0599764-.00000787.11778.013748.170236.0402677.0848268-.124315.224831-.19939.378197-.19939.202524-.00000787.377031.129583.436701.319409.169756.0388976.293472.191295.293472.368937.00000787.208642-.169748.378496-.378476.378492z"></path><path id="_352900624" d="m2.43686 1.63829c-.186402.0917402-.355776.213331-.505339.362894-.744496.744406-.744504 1.95584 0 2.70035.360661.360642.84015.559256 1.35017.559256.510016-.00000394.98952-.19861 1.35017-.559256.149575-.149567.271047-.318921.36289-.505441-.323114.197827-.701504.292791-1.08439.269394-.453268-.0275945-.880031-.219862-1.20148-.541319-.321445-.321461-.513724-.748209-.541319-1.20148-.0233898-.382976.071563-.761272.269295-1.08439zm.844854 3.73481c-.540055 0-1.04775-.210303-1.42956-.592213-.788268-.788283-.788283-2.07088 0-2.85917.206811-.206795.449567-.363087.721689-.464583.0233976-.00878346.0499173-.00097638.0648346.0192047.0148346.0201811.0145315.0477756-.00077953.0676654-.533303.692531-.468681 1.68167.150441 2.30069.619028.619118 1.60815.68376 2.30069.150346.0199016-.0152126.0474843-.0155039.067563-.00068504.0201929.0149134.0280827.0413425.0193071.0648386-.101496.272114-.257787.51489-.464583.721685-.381906.381898-.889587.592217-1.42961.592213z"></path></g></g></svg>