<!-- icon666.com - MILLIONS vector ICONS FREE --><svg viewBox="0 0 152 152" xmlns="http://www.w3.org/2000/svg" xmlns:xlink="http://www.w3.org/1999/xlink"><linearGradient id="linear-gradient" gradientUnits="userSpaceOnUse" x1="46.41" x2="133.2" y1="57.22" y2="144.01"><stop offset="0" stop-color="#0d8fb3"></stop><stop offset="1" stop-color="#0d8fb3" stop-opacity="0"></stop></linearGradient><g id="Layer_2" data-name="Layer 2"><g id="_23.moon" data-name="23.moon"><rect id="background" fill="#12bae9" height="152" rx="30.14" width="152"></rect><path id="shadow" d="m152 122.37a30.22 30.22 0 0 1 -30.14 29.63h-21.11l-55.59-55.59c-16.49-46.29 22.46-58.41 22.46-58.41z" fill="url(#linear-gradient)"></path><path id="icon" d="m77.6 114a38.17 38.17 0 0 1 -37.81-30.8 39.51 39.51 0 0 1 4.35-27.08 37.15 37.15 0 0 1 20.71-17.21l2.77-.91-.87 2.78c-4.26 13.6-.85 27.51 9.13 37.22a34.13 34.13 0 0 0 35 8.12l2.12-.72-.08 2.19c-.41 10.71-17.26 24.92-31.08 26.21-1.47.13-2.84.2-4.24.2zm-14.51-71.22c-14.81 6.37-23.65 23.28-20.35 39.83a35.2 35.2 0 0 0 34.89 28.39c1.27 0 2.56-.06 3.89-.19 11.16-1 25.56-12.25 28-21.14a37.15 37.15 0 0 1 -35.73-9.52 38.69 38.69 0 0 1 -10.7-37.37z" fill="#fff"></path></g></g></svg>