<!-- icon666.com - MILLIONS vector ICONS FREE --><svg id="Layer_1" viewBox="0 0 512 512" xmlns="http://www.w3.org/2000/svg" xmlns:xlink="http://www.w3.org/1999/xlink" data-name="Layer 1"><linearGradient id="GradientFill_1" gradientUnits="userSpaceOnUse" x1="74.981" x2="437.019" y1="437.019" y2="74.981"><stop offset="0" stop-color="#001b39"></stop><stop offset=".12" stop-color="#002443"></stop><stop offset=".323" stop-color="#003d5e"></stop><stop offset=".587" stop-color="#00658a"></stop><stop offset=".896" stop-color="#009dc6"></stop><stop offset="1" stop-color="#00b1dc"></stop></linearGradient><path d="m256 0c141.385 0 256 114.615 256 256s-114.615 256-256 256-256-114.615-256-256 114.615-256 256-256zm8.982 391.937a139.634 139.634 0 0 0 113.185-57.9 153.672 153.672 0 0 1 -172.721-207.926 139.216 139.216 0 0 0 -80.021 126.269c0 76.951 62.607 139.557 139.557 139.557zm134.033-73.686a7.027 7.027 0 0 0 -7.594-2.2 139.382 139.382 0 0 1 -43.412 6.9c-76.951 0-139.557-62.607-139.557-139.558a139.686 139.686 0 0 1 17.1-66.978 7.034 7.034 0 0 0 -8.35-10.066 153.638 153.638 0 1 0 182.568 219.771 7.02 7.02 0 0 0 -.755-7.869z" fill="url(#GradientFill_1)" fill-rule="evenodd"></path></svg>