<!-- icon666.com - MILLIONS vector ICONS FREE --><svg viewBox="0 0 64 64" xmlns="http://www.w3.org/2000/svg"><g id="Record_Button" data-name="Record Button"><path d="m52 15.39a25.99761 25.99761 0 1 0 6 16.61 25.937 25.937 0 0 0 -6-16.61z" fill="#1192cb"></path><path d="m52 15.39a25.9996 25.9996 0 1 0 -31.8 39.78 28.019 28.019 0 0 0 31.8-39.78z" fill="#4bc4ef"></path><circle cx="17.481" cy="15.477" fill="#aef4f4" r="2.5"></circle><circle cx="13.434" cy="19.769" fill="#aef4f4" r="1.25"></circle><path d="m32 44a12 12 0 1 1 12-12 12.01312 12.01312 0 0 1 -12 12zm0-20a8 8 0 1 0 8 8 8.00917 8.00917 0 0 0 -8-8z" fill="#fff"></path></g></svg>