<!-- icon666.com - MILLIONS vector ICONS FREE --><svg clip-rule="evenodd" fill-rule="evenodd" stroke-linejoin="round" stroke-miterlimit="2" viewBox="0 0 48 48" xmlns="http://www.w3.org/2000/svg" xmlns:xlink="http://www.w3.org/1999/xlink"><linearGradient id="_Linear1" gradientTransform="matrix(31 -30 30 31 485 381)" gradientUnits="userSpaceOnUse" x1="0" x2="1" y1="0" y2="0"><stop offset="0" stop-color="#0056e0"></stop><stop offset=".01" stop-color="#0056e0"></stop><stop offset="1" stop-color="#00e5b8"></stop></linearGradient><g transform="translate(-106 -265)"><g transform="translate(-370 -75)"><g id="ngicon"><path d="m501.081 343.504c-.65-.05-1.257.326-1.504.929-.246.604-.074 1.297.426 1.716 3.134 2.629 5.118 6.436 5.118 10.675 0 7.972-6.982 14.391-15.521 14.391-2.873 0-5.566-.725-7.879-1.993-.551-.302-1.232-.229-1.705.184-.474.412-.641 1.076-.419 1.663 2.969 7.829 10.714 13.431 19.803 13.431 11.657 0 21.1-9.212 21.1-20.53 0-10.77-8.548-19.63-19.419-20.466z" fill="url(#_Linear1)"></path></g></g></g></svg>