<!-- icon666.com - MILLIONS vector ICONS FREE --><svg id="Layer_1" enable-background="new 0 0 512 512" viewBox="0 0 512 512" xmlns="http://www.w3.org/2000/svg"><path d="m178.965 302.699c-9.835-7.381-11.797-21.397-4.213-31.083 13.184-16.843 28.267-34.101 45.515-51.349 17.237-17.237 34.517-32.32 51.392-45.504 9.675-7.573 23.68-5.611 31.051 4.224l19.584 26.101c47.509-18.837 87.168-36.363 131.307-70.603l-14.709-56.427c-4.853-18.613-24.512-29.237-42.656-22.859-44.428 15.606-125.868 52.801-207.052 133.996-81.184 81.173-118.379 162.624-133.984 207.05-6.379 18.155 4.245 37.803 22.859 42.656l56.427 14.699c31.477-39.531 57.76-83.349 70.603-131.317z" fill="#2196f3"></path><path d="m331.36 217.184c6.528 8.693 18.432 11.317 28 6.165l87.744-47.243c8.917-4.8 13.408-15.083 10.848-24.896l-4.352-16.725c-47.253 17.429-91.349 41.355-131.307 70.603z" fill="#2196f3"></path><path d="m331.36 217.184c6.528 8.693 18.432 11.317 28 6.165l87.744-47.243c8.917-4.8 13.408-15.083 10.848-24.896l-4.352-16.725c-47.253 17.429-91.349 41.355-131.307 70.603z" fill="#1976d2" opacity=".44"></path><path d="m176.117 447.115 47.243-87.744c5.152-9.579 2.539-21.472-6.165-28l-12.107-9.077c-29.248 39.957-53.173 84.053-70.603 131.317l16.736 4.363c9.803 2.549 20.086-1.942 24.896-10.859z" fill="#2196f3"></path><path d="m176.117 447.115 47.243-87.744c5.152-9.579 2.539-21.472-6.165-28l-12.107-9.077c-29.248 39.957-53.173 84.053-70.603 131.317l16.736 4.363c9.803 2.549 20.086-1.942 24.896-10.859z" fill="#1976d2" opacity=".44"></path></svg>