<!-- icon666.com - MILLIONS vector ICONS FREE --><svg viewBox="0 0 32 32" xmlns="http://www.w3.org/2000/svg"><g id="Layer_2" data-name="Layer 2"><path d="m29.96 25.1a3.494 3.494 0 0 1 -1.86 2.6l-1.6.82a12.668 12.668 0 0 1 -5.88 1.43 12.849 12.849 0 0 1 -6.78-1.92 32.829 32.829 0 0 1 -5.56-4.21 32.631 32.631 0 0 1 -4.26-5.43 12.721 12.721 0 0 1 -1.98-7.9 12.853 12.853 0 0 1 1.52-5.1l.81-1.51a3.544 3.544 0 0 1 5.6-.81l3.36 3.36a3.532 3.532 0 0 1 -1.05 5.71l-1.75.79a.694.694 0 0 0 -.37.84 12.876 12.876 0 0 0 3.07 5.08 13.005 13.005 0 0 0 5.11 2.98.666.666 0 0 0 .82-.37l.78-1.69a3.533 3.533 0 0 1 5.7-1.03l3.33 3.33a3.43 3.43 0 0 1 .88 1.47 3.553 3.553 0 0 1 .11 1.56z" fill="#3eb5f7"></path><path d="m29.85 23.54a3.475 3.475 0 0 1 -1.75 2.12l-1.6.83c-.37.19-.75.36-1.13.51a11.018 11.018 0 0 1 -1.85.58 12.358 12.358 0 0 1 -2.9.34c-.34 0-.68-.01-1.02-.04a12.879 12.879 0 0 1 -5.76-1.89 37.142 37.142 0 0 1 -3.34-2.3 23.767 23.767 0 0 1 -2.22-1.91 32.631 32.631 0 0 1 -4.26-5.43 12.8 12.8 0 0 1 -1.98-5.86 12.853 12.853 0 0 1 1.52-5.1l.81-1.51a3.454 3.454 0 0 1 .68-.88 3.533 3.533 0 0 1 1.92-.92 3.487 3.487 0 0 1 3 .99l3.36 3.36a3.532 3.532 0 0 1 -1.05 5.71l-1.75.79a.694.694 0 0 0 -.37.84 12.876 12.876 0 0 0 3.07 5.08 12.713 12.713 0 0 0 4.74 2.85c.13.05.25.09.37.13a.666.666 0 0 0 .82-.37l.78-1.69a3.541 3.541 0 0 1 2.58-2 2.868 2.868 0 0 1 .41-.05 3.528 3.528 0 0 1 2.71 1.02l3.33 3.33a3.43 3.43 0 0 1 .88 1.47z" fill="#70c1f9"></path><path d="m19.6 27.88a12.879 12.879 0 0 1 -5.76-1.89 37.142 37.142 0 0 1 -3.34-2.3l-5.45-20.69a3.533 3.533 0 0 1 1.92-.92 3.487 3.487 0 0 1 3 .99l3.36 3.36a3.532 3.532 0 0 1 -1.05 5.71l-1.75.79a.694.694 0 0 0 -.37.84 12.876 12.876 0 0 0 3.07 5.08 12.713 12.713 0 0 0 4.74 2.85z" fill="#9bd3fb"></path></g></svg>