<!-- icon666.com - MILLIONS vector ICONS FREE --><svg id="Layer_1" enable-background="new 0 0 512 512" viewBox="0 0 512 512" xmlns="http://www.w3.org/2000/svg"><g clip-rule="evenodd" fill-rule="evenodd"><path d="m255.555-.441c-141.183 0-255.998 114.843-255.998 256.002 0 141.16 114.814 255.998 255.997 255.998 141.136 0 255.998-114.838 255.998-255.998 0-141.159-114.861-256.002-255.997-256.002z" fill="#4779f4"></path><path d="m354.483 491.661c90.257-37.965 154.363-126.23 156.986-229.509l-122.033-122.032c-1.47-1.778-3.695-2.911-6.189-2.911h-44.501l-28.861-28.861c-.173-.209-.358-.412-.556-.607-3.113-3.132-8.16-3.132-11.274 0l-31.841 31.808c-3.016 3.025-3.11 7.879-.283 11.014.091.101.185.2.283.298l63.61 63.61h-57.949c-3.637 0-6.671 2.409-7.644 5.715l-42.074-42.074-27.359-27.368c-6.132-6.123-14.293-9.491-22.972-9.491-8.68 0-16.84 3.368-22.972 9.491-1.746 1.769-3.349 3.335-4.859 4.788-8.066 7.868-12.925 12.618-19.482 25.538-8.774 17.17-5.047 42.322 10.802 72.724 13.632 26.128 35.425 54.808 61.37 80.757 4.623 4.625 9.427 9.207 14.369 13.684z" fill="#2357cc"></path><g fill="#fefefe"><path d="m298.056 182.668c1.556 1.571 3.585 2.354 5.613 2.354 2.076 0 4.104-.783 5.661-2.354 3.161-3.118 3.161-8.189 0-11.307l-18.114-18.151h92.031c4.434 0 8.019-3.59 8.019-8 0-4.42-3.585-8-8.019-8h-92.031l18.114-18.156c3.161-3.123 3.161-8.193 0-11.312-3.113-3.132-8.16-3.132-11.274 0l-31.841 31.808c-3.113 3.123-3.113 8.194 0 11.312z"></path><path d="m388.908 216.81-31.793-31.812c-3.113-3.118-8.208-3.118-11.321 0-3.113 3.132-3.113 8.194 0 11.321l18.161 18.151h-92.078c-4.434 0-7.972 3.58-7.972 8s3.538 8 7.972 8h92.078l-18.161 18.152c-3.113 3.127-3.113 8.189 0 11.316 1.556 1.561 3.632 2.34 5.66 2.34s4.104-.778 5.66-2.34l31.793-31.808c3.161-3.131 3.161-8.192.001-11.32z"></path><path d="m367.115 357.649-40.331-40.317c-3.113-3.123-8.208-3.123-11.321 0-3.113 3.127-3.113 8.189 0 11.321l41.841 41.827c-6.934 7.099-10.425 10.533-20.661 15.741-26.038 13.26-77.738-12.052-128.635-62.978-52.124-52.115-81.889-110.112-69.247-134.914 5.189-10.227 8.632-13.741 15.708-20.67l41.841 41.841c1.557 1.561 3.632 2.34 5.661 2.34 2.076 0 4.104-.778 5.661-2.34 3.113-3.128 3.113-8.189 0-11.316l-40.284-40.303c1.415-.401 2.924-.627 4.481-.627 4.434 0 8.538 1.708 11.651 4.797l27.359 27.373c6.415 6.415 6.415 16.868 0 23.288l-6.557 6.538c-9.01 9.062-9.01 23.793 0 32.84l68.587 68.568c9.057 9.052 23.774 9.052 32.831 0l6.557-6.538c3.066-3.09 7.217-4.802 11.651-4.802 4.387 0 8.538 1.712 11.651 4.802l27.359 27.369c4.385 4.372 5.753 10.603 4.197 16.16zm-20.284-54.851c-6.085-6.109-14.246-9.477-22.925-9.477s-16.84 3.368-22.972 9.477l-6.51 6.543c-1.368 1.359-3.208 2.109-5.142 2.109s-3.727-.75-5.095-2.109l-68.587-68.563c-2.783-2.816-2.783-7.396 0-10.208l6.557-6.538c12.642-12.661 12.642-33.265 0-45.921l-27.359-27.368c-6.132-6.123-14.293-9.491-22.972-9.491-8.68 0-16.84 3.368-22.972 9.491-1.746 1.769-3.349 3.335-4.859 4.788-8.066 7.868-12.925 12.618-19.482 25.538-8.774 17.17-5.047 42.322 10.802 72.724 13.632 26.128 35.425 54.808 61.37 80.757 36.982 37.001 85.569 71.228 123.777 71.228 8.397 0 16.274-1.656 23.444-5.297 12.925-6.59 17.642-11.449 25.52-19.52 1.462-1.481 3.019-3.09 4.811-4.859v-.014c12.642-12.646 12.642-33.246 0-45.907z"></path></g></g></svg>