<!-- icon666.com - MILLIONS vector ICONS FREE --><svg version="1.1" id="Capa_1" xmlns="http://www.w3.org/2000/svg" xmlns:xlink="http://www.w3.org/1999/xlink" x="0px" y="0px" viewBox="0 0 468.293 468.293" style="enable-background:new 0 0 468.293 468.293;" xml:space="preserve"><path style="fill:#64798A;" d="M359.024,468.293H109.268c-10.345,0-18.732-8.386-18.732-18.732V18.732 C90.537,8.386,98.923,0,109.268,0h249.756c10.345,0,18.732,8.386,18.732,18.732v430.829 C377.756,459.906,369.37,468.293,359.024,468.293z"></path><rect x="90.537" y="61.446" style="fill:#27A2DB;" width="287.22" height="334.236"></rect><g><circle style="fill:#3A556A;" cx="239.466" cy="432.016" r="24.976"></circle><path style="fill:#3A556A;" d="M274.732,36.968h-81.171c-3.448,0-6.244-2.795-6.244-6.244v0c0-3.448,2.796-6.244,6.244-6.244 h81.171c3.448,0,6.244,2.795,6.244,6.244v0C280.976,34.173,278.18,36.968,274.732,36.968z"></path><circle style="fill:#3A556A;" cx="300.226" cy="30.726" r="6.244"></circle><circle style="fill:#3A556A;" cx="328.866" cy="30.726" r="9.366"></circle></g><path style="fill:#D5D6DB;" d="M338.317,238.23h-35.681c-3.68,0-6.913,2.448-7.913,5.992l-13.596,48.267l-19.96-159.026 c-0.498-3.973-3.787-7.008-7.788-7.188c-4.01-0.173-7.548,2.549-8.398,6.462l-24.73,113.556l-18.075-55.303 c-1.05-3.215-3.961-5.458-7.335-5.655c-3.395-0.177-6.528,1.698-7.943,4.768l-21.994,47.713h-34.928c-4.539,0-8.22,3.68-8.22,8.22 c0,4.539,3.68,8.22,8.22,8.22h40.19c3.207,0,6.123-1.866,7.465-4.78l15.428-33.465l20.971,64.161 c1.152,3.532,4.567,5.876,8.23,5.655c3.705-0.189,6.825-2.834,7.614-6.458l20.959-96.242l19.04,151.701 c0.488,3.881,3.64,6.879,7.542,7.172c0.207,0.016,0.413,0.024,0.618,0.024c3.654,0,6.903-2.428,7.909-5.992l22.92-81.363h29.456 c4.539,0,8.22-3.68,8.22-8.22S342.856,238.23,338.317,238.23z"></path></svg>