<!-- icon666.com - MILLIONS vector ICONS FREE --><svg viewBox="-103 0 512 512" xmlns="http://www.w3.org/2000/svg"><path d="m259.539062 0h-213.496093c-25.386719 0-46.042969 20.65625-46.042969 46.042969v419.914062c0 25.386719 20.65625 46.042969 46.042969 46.042969h213.496093c25.390626 0 46.042969-20.65625 46.042969-46.042969v-419.914062c0-25.386719-20.652343-46.042969-46.042969-46.042969zm0 0" fill="#27488f"></path><path d="m259.539062 0h-106.742187v512h106.742187c25.390626 0 46.042969-20.65625 46.042969-46.042969v-419.914062c0-25.386719-20.652343-46.042969-46.042969-46.042969zm0 0" fill="#12254c"></path><path d="m0 92.085938h305.582031v327.828124h-305.582031zm0 0" fill="#edfafa"></path><path d="m152.796875 92.085938h152.785156v327.828124h-152.785156zm0 0" fill="#bfe1ff"></path><path d="m176.742188 481.980469h-47.894532c-8.382812 0-15.175781-6.792969-15.175781-15.175781 0-8.382813 6.792969-15.179688 15.175781-15.179688h47.894532c8.382812 0 15.175781 6.796875 15.175781 15.179688 0 8.382812-6.792969 15.175781-15.175781 15.175781zm0 0" fill="#0053bf"></path><path d="m176.742188 451.625h-23.945313v30.355469h23.945313c8.382812 0 15.179687-6.792969 15.179687-15.175781 0-8.382813-6.796875-15.179688-15.179687-15.179688zm0 0" fill="#27488f"></path><path d="m152.796875 312.660156c-15.183594 0-29.34375-8.171875-36.949219-21.324218-4.199218-7.257813-1.71875-16.539063 5.535156-20.738282 7.257813-4.195312 16.542969-1.71875 20.738282 5.539063 2.203125 3.804687 6.292968 6.167969 10.675781 6.167969 4.386719 0 8.476563-2.363282 10.675781-6.167969 4.199219-7.257813 13.484375-9.738281 20.738282-5.539063 7.257812 4.199219 9.734374 13.484375 5.539062 20.738282-7.609375 13.152343-21.769531 21.324218-36.953125 21.324218zm0 0" fill="#27488f"></path><path d="m184.210938 270.597656c-7.253907-4.199218-16.539063-1.71875-20.734376 5.539063-2.203124 3.804687-6.292968 6.167969-10.675781 6.167969v30.355468c15.183594 0 29.339844-8.171875 36.949219-21.324218 4.199219-7.253907 1.71875-16.539063-5.539062-20.738282zm0 0" fill="#12254c"></path><path d="m105.171875 248.5c-8.382813 0-15.179687-6.796875-15.179687-15.175781v-18.804688c0-8.382812 6.796874-15.179687 15.179687-15.179687s15.175781 6.796875 15.175781 15.179687v18.804688c0 8.378906-6.792968 15.175781-15.175781 15.175781zm0 0" fill="#27488f"></path><path d="m200.425781 248.5c-8.382812 0-15.175781-6.796875-15.175781-15.175781v-18.804688c0-8.382812 6.792969-15.179687 15.175781-15.179687 8.382813 0 15.179688 6.796875 15.179688 15.179687v18.804688c0 8.378906-6.796875 15.175781-15.179688 15.175781zm0 0" fill="#12254c"></path></svg>