<!-- icon666.com - MILLIONS vector ICONS FREE --><svg id="Layer_1" viewBox="0 0 512 512" xmlns="http://www.w3.org/2000/svg" data-name="Layer 1"><path d="m385.55 341.188a41.222 41.222 0 0 1 51.551 1.683l60.278 51.378a40.713 40.713 0 0 1 12.621 43.951l-3.925 12.424a42.618 42.618 0 0 1 -5.465 11.335 876.178 876.178 0 0 1 -127.652-111.37l12.6-9.4zm-324.159-335.248 12.392-3.91a41.232 41.232 0 0 1 12.801-2.03 40.753 40.753 0 0 1 31.195 14.651l51.347 60.239a41.224 41.224 0 0 1 1.688 51.577l-9.384 12.572a870.719 870.719 0 0 1 -111.375-127.655 43.2 43.2 0 0 1 11.336-5.444zm-23.906 19.749c-29.5 54.547-41.685 92.411-36.217 112.558.053.2.1.4.13.594 27.302 160.323 211.457 344.459 371.778 371.777.2.05.4.05.591.1 20.144 5.494 58.01-6.682 112.544-36.182a45.35 45.35 0 0 0 5.425-3.465 889.266 889.266 0 0 1 -128.951-112.9l-5.9 4.355a53.14 53.14 0 0 1 -63.338.842 462 462 0 0 1 -144.9-144.88 53.183 53.183 0 0 1 .822-63.357l4.39-5.89a890.183 890.183 0 0 1 -112.932-128.947 46.105 46.105 0 0 0 -3.442 5.395z" fill="#006df0" fill-rule="evenodd"></path></svg>