<!-- icon666.com - MILLIONS vector ICONS FREE --><svg id="Layer_1" viewBox="0 0 512 512" xmlns="http://www.w3.org/2000/svg" xmlns:xlink="http://www.w3.org/1999/xlink" data-name="Layer 1"><linearGradient id="GradientFill_1" gradientUnits="userSpaceOnUse" x1="143.668" x2="317.469" y1="376.771" y2="190.221"><stop offset="0" stop-color="#667abc"></stop><stop offset="1" stop-color="#20c4f4"></stop></linearGradient><path d="m475.937 426.9a14.163 14.163 0 0 0 .006-19.958l-77.092-77.078a14.2 14.2 0 0 0 -19.971 0l-20.949 20.958a61.892 61.892 0 0 1 -73.044 10.941 324.048 324.048 0 0 1 -134.61-134.6 61.859 61.859 0 0 1 10.934-73.07l20.995-20.958a14.156 14.156 0 0 0 -.008-19.952l-77.092-77.071a14.2 14.2 0 0 0 -19.981 0c-3.873 3.869-7.87 7.633-11.851 11.392-3.209 3.031-6.418 6.062-9.594 9.127-5.552 5.356-13.531 12.792-17.845 19.107-24.353 35.652-12.1 85.84 3.152 122.45 23.724 56.966 66.286 111.838 109.673 155.212s98.25 85.906 155.212 109.64c36.6 15.25 86.771 27.5 122.413 3.147 6.321-4.318 13.752-12.287 19.114-17.842 3.062-3.172 6.089-6.377 9.116-9.582 3.765-3.989 7.545-7.982 11.422-11.863zm11.318 11.308c-3.187 3.178-7.029 7.241-11.107 11.538-10.169 10.793-22.869 24.21-30.836 29.651-41.9 28.63-97.947 14.931-137.594-1.588-52.3-21.792-109.241-61.96-160.37-113.093-51.176-51.139-91.339-108.1-113.131-160.37-16.5-39.657-30.227-95.721-1.593-137.627 5.436-7.974 18.886-20.655 29.665-30.844 4.312-4.063 8.342-7.9 11.529-11.078a30.2 30.2 0 0 1 42.6 0l77.092 77.068a30.2 30.2 0 0 1 0 42.591l-20.995 20.957a45.874 45.874 0 0 0 -8.107 54.241 307.954 307.954 0 0 0 127.985 127.973 45.848 45.848 0 0 0 54.222-8.122l20.949-20.958a30.2 30.2 0 0 1 42.6 0l77.092 77.078a30.186 30.186 0 0 1 0 42.581zm24.7-18.389a45.9 45.9 0 0 1 -13.4 29.707c-3 3.023-6.8 7-10.779 11.21-11.248 11.932-24.042 25.462-33.414 31.873-18.934 12.929-41.616 19.387-67.3 19.387s-54.456-6.467-85.527-19.43c-54.175-22.57-112.944-63.96-165.525-116.537s-93.967-111.376-116.555-165.529c-25.869-62.112-25.869-114.957-.047-152.8 6.42-9.4 19.964-22.18 31.915-33.451 4.171-3.979 8.154-7.747 11.2-10.77a46.176 46.176 0 0 1 65.189 0l77.088 77.073a46.135 46.135 0 0 1 0 65.212l-20.949 20.958a29.568 29.568 0 0 0 -5.3 35.425 291.893 291.893 0 0 0 121.341 121.346 29.606 29.606 0 0 0 35.429-5.3l20.948-20.963a46.151 46.151 0 0 1 65.189 0l77.092 77.074a45.9 45.9 0 0 1 13.4 29.706z" fill="url(#GradientFill_1)" fill-rule="evenodd"></path></svg>