<!-- icon666.com - MILLIONS vector ICONS FREE --><svg enable-background="new 0 0 512 512" viewBox="0 0 512 512" xmlns="http://www.w3.org/2000/svg" xmlns:xlink="http://www.w3.org/1999/xlink"><linearGradient id="SVGID_1_" gradientUnits="userSpaceOnUse" x1="256" x2="256" y1=".213" y2="511.787"><stop offset="0" stop-color="#5df5ff"></stop><stop offset=".5467" stop-color="#55d0ff"></stop><stop offset="1" stop-color="#4eaeff"></stop></linearGradient><g id="_x33_7_Call"><path d="m183.814 170.849c-4.66 4.191-9.269 8.487-13.825 12.887-5.417-14.446-41.283-79.039-31.893-178.781 0-.13.026-.286.026-.416 5.754 2.708 11.611 5.311 17.469 7.784 9.086 3.931 15.205 14.371 15.283 26.009.104 35.72 6.431 70.737 18.771 104.061 3.828 10.361 1.485 21.791-5.831 28.456zm315.88 185.549c-3.905-9.06-14.371-15.205-26.008-15.257-35.72-.104-70.737-6.431-104.062-18.771-10.362-3.827-21.791-1.484-28.482 5.832-4.166 4.66-8.461 9.294-12.835 13.825.235.078.442.182.651.286 90.906 43.639 172.669 31.554 178.521 31.554-2.708-5.753-5.311-11.585-7.785-17.469zm11.43 25.566c-.172-1.602-1.611-3.093-3.541-2.889-62.379 5.858-124.993-5.233-181.02-32.127-1.555-.805-3.529-.133-4.322 1.51-5.78 12.106-11.585 24.238-17.391 36.37-2.24 4.686-8.024 6.879-12.757 4.4-72.768-37.984-131.32-96.537-169.305-169.304-2.5-4.773-.234-10.517 4.4-12.731 50.007-24.017 32.464-15.592 36.318-17.444 1.659-.774 2.309-2.826 1.536-4.322-26.894-56.027-38.011-118.641-32.127-181.02.182-1.77-1.119-3.359-2.889-3.54-.785.111-57.778-9.219-100.521 39.13-24.966 28.3-34.625 65.582-26.477 102.291 40.483 181.835 184.128 326.032 366.674 366.674 78.023 17.311 149.851-47.379 141.422-126.998zm-207.602-304.633c-10.544 0-19.136 8.592-19.136 19.136 0 10.414 8.381 19.135 19.136 19.135 51.21.027 92.866 41.682 92.866 92.919 0 10.581 8.604 19.135 19.136 19.135 10.544 0 19.135-8.591 19.135-19.135 0-72.412-58.797-131.19-131.137-131.19zm0 57.173c-10.792 0-19.136 8.794-19.136 19.135 0 10.544 8.592 19.135 19.136 19.135 19.721 0 35.694 16.091 35.694 35.746 0 10.544 8.592 19.135 19.136 19.135 10.524 0 19.135-8.536 19.135-19.135 0-40.441-32.718-74.016-73.965-74.016zm-19.578 61.833c-8.696 8.721-8.67 22.936.078 31.684 8.525 8.472 22.457 9.037 31.606 0 8.748-8.748 8.774-22.963.078-31.684-8.773-8.748-23.014-8.748-31.762 0zm19.604-176.178h-.026c-10.538 0-19.136 8.56-19.136 19.136 0 10.507 8.468 19.135 19.136 19.135 82.851 0 150.038 67.354 150.038 150.091 0 10.336 8.335 19.109 19.136 19.109 10.544 0 19.135-8.565 19.135-19.109 0-103.98-84.462-188.362-188.283-188.362z" fill="url(#SVGID_1_)"></path></g></svg>