<!-- icon666.com - MILLIONS vector ICONS FREE --><svg id="Layer_1" viewBox="0 0 512 512" xmlns="http://www.w3.org/2000/svg" xmlns:xlink="http://www.w3.org/1999/xlink" data-name="Layer 1"><linearGradient id="GradientFill_1" gradientUnits="userSpaceOnUse" x1="147.342" x2="309.917" y1="372.831" y2="198.295"><stop offset="0" stop-color="#667abc"></stop><stop offset="1" stop-color="#20c4f4"></stop></linearGradient><path d="m502.638 450.357c-3.4 3.389-7.5 7.723-11.847 12.307-10.848 11.513-24.4 25.825-32.894 31.629-44.69 30.538-104.478 15.926-146.769-1.695-55.789-23.245-116.528-66.091-171.065-120.635-54.588-54.548-97.43-115.306-120.675-171.063-17.6-42.3-32.243-102.1-1.7-146.8 5.8-8.5 20.145-22.031 31.643-32.9 4.6-4.334 8.9-8.429 12.3-11.818a32.212 32.212 0 0 1 45.441 0l82.228 82.204a32.213 32.213 0 0 1 0 45.431l-22.4 22.355a48.935 48.935 0 0 0 -8.649 57.858 328.506 328.506 0 0 0 136.53 136.507 48.905 48.905 0 0 0 57.838-8.663l22.345-22.356a32.212 32.212 0 0 1 45.441 0l82.233 82.218a32.2 32.2 0 0 1 0 45.421z" fill="url(#GradientFill_1)" fill-rule="evenodd"></path></svg>