<!-- icon666.com - MILLIONS vector ICONS FREE --><svg viewBox="0 0 512 512" xmlns="http://www.w3.org/2000/svg"><g id="Layer_2" data-name="Layer 2"><g id="InterfaceIcon"><g id="_20.Telephone" data-name="20.Telephone"><rect id="Background" fill="#41a5ee" height="512" rx="131.96" transform="matrix(0 1 -1 0 512 0)" width="512"></rect><path d="m512 287.84v92.16a132 132 0 0 1 -132 132h-17.9l-181-181-19.88-96.42 46.23-99.17 54.07 53.1 23.48-2.32 16.8-12.72-42.8-42.8 108.87 13z" opacity=".25"></path><g id="_20.Telephone-2" fill="#fff" data-name="20.Telephone"><path d="m387.39 317.59c9.86 14 14.82 40.31-11.63 66.76-48.71 48.72-133.2 8.39-194.71-53.4-61.8-61.51-102.12-146-53.41-194.72 26.45-26.45 52.82-21.49 66.77-11.62 21.67 15.33 50.44 47.38 22.88 81.88-4 5-8.51 10.38-12.2 14.71a17.55 17.55 0 0 0 -2.35 19.29 155 155 0 0 0 68.77 68.77 17.55 17.55 0 0 0 19.29-2.35c4.33-3.69 9.73-8.23 14.71-12.21 34.49-27.55 66.55 1.22 81.88 22.89z"></path><path d="m368.08 143.92c44.79 44.79 37.55 97.45 37.4 99.67a14.29 14.29 0 1 1 -28.48-1.82c0-.43 1.44-47.12-29.09-77.64s-77.25-29.13-77.68-29.13a14.28 14.28 0 1 1 -1.82-28.51c2.22-.12 54.87-7.36 99.67 37.43z"></path><path d="m326.54 185.46a71 71 0 0 1 20.76 55.35 14.29 14.29 0 1 1 -28.51-1.87 42.9 42.9 0 0 0 -45.73-45.73 14.29 14.29 0 1 1 -1.87-28.51 70.93 70.93 0 0 1 55.35 20.76z"></path></g></g></g></g></svg>