<!-- icon666.com - MILLIONS vector ICONS FREE --><svg id="Layer_1" viewBox="0 0 512 512" xmlns="http://www.w3.org/2000/svg" xmlns:xlink="http://www.w3.org/1999/xlink" data-name="Layer 1"><linearGradient id="GradientFill_1" gradientUnits="userSpaceOnUse" x1="145.064" x2="312.498" y1="366.875" y2="199.599"><stop offset="0" stop-color="#617fc0"></stop><stop offset="1" stop-color="#20c4f4"></stop></linearGradient><path d="m445.618 501.258c-8.328 8.681-19.156 12.531-31.089 9.949-212.936-46.059-367.696-200.796-413.742-413.741-2.58-11.932 1.3-22.745 9.972-31.068l36.159-34.698 3.063 3.9q46.035 58.537 96.056 113.83l2.846 3.146-9.021 9.151a38.174 38.174 0 0 0 -5.7 46.713c20.62 35.057 43.029 68.617 71.9 97.491s62.451 51.3 97.517 71.924a38.215 38.215 0 0 0 46.7-5.723l9.166-8.99 3.137 2.838q55.219 49.971 113.84 96.042l3.9 3.063-34.7 36.173zm-351.475-501.229c-.459-.029-.917-.029-1.377-.029-8.466 0-15.602 2.614-21.714 8.518l-4.583 4.428 2.5 3.187q45.809 58.467 95.631 113.667l3.195 3.539 9.025-9.185a35.363 35.363 0 0 0 1.54-48.023l-55.521-64.595a31.235 31.235 0 0 0 -23.769-11.362zm293.7 335.171-9.149 9.022 3.532 3.19q55.12 49.77 113.649 95.627l3.219 2.522 4.406-4.654c6.2-6.426 8.756-14.062 8.48-22.987l-.155-4.987a31.3 31.3 0 0 0 -11.359-23.768l-64.6-55.511a35.314 35.314 0 0 0 -48.023 1.546z" fill="url(#GradientFill_1)" fill-rule="evenodd"></path></svg>